#N canvas 1026 47 1571 1012 10;
#X obj 134 -12 inlet~ voc;
#X obj 133 259 outlet level;
#X obj 246 56 line~;
#X obj 246 35 pack f 12;
#X obj 174 57 line~;
#X obj 174 36 pack f 12;
#X obj 174 11 inlet freq;
#X obj 246 11 r q-\$1;
#X obj 133 210 dbtorms;
#X obj 134 135 reson~ 1 \$1 7;
#X obj 133 159 reson~ 1 \$1 7;
#X obj 133 232 * 2;
#X obj 133 185 env~ 128;
#X connect 0 0 9 0;
#X connect 2 0 9 3;
#X connect 2 0 10 3;
#X connect 3 0 2 0;
#X connect 4 0 9 2;
#X connect 4 0 10 2;
#X connect 5 0 4 0;
#X connect 6 0 5 0;
#X connect 7 0 3 0;
#X connect 8 0 11 0;
#X connect 9 0 10 0;
#X connect 10 0 12 0;
#X connect 11 0 1 0;
#X connect 12 0 8 0;
