#N canvas 1026 47 1571 1012 10;
#X obj 419 513 outlet~;
#N canvas 1026 47 1571 1012 res.trap 0;
#X obj 187 229 cos~;
#X obj 187 200 wrap~;
#X obj 187 176 +~ 1;
#X obj 118 331 *~;
#X obj 187 147 *~;
#X obj 66 53 inlet~;
#X obj 298 50 inlet~;
#X obj 118 434 outlet~;
#X obj 298 81 max~ 1;
#X obj 66 222 clip~ -0.5 0.5;
#X obj 66 193 expr~ -1*(1-$v1);
#X obj 66 256 *~ 2;
#X obj 187 255 *~ -1;
#X obj 187 281 +~ 1;
#X obj 118 359 +~ 1;
#X obj 132 90 line~;
#X obj 132 69 pack f 12;
#X obj 132 40 inlet vol;
#X obj 422 217 switch~;
#X obj 422 169 == 0;
#X obj 422 195 invert;
#X text 455 169 also works for negative volumes;
#X obj 118 381 *~;
#X connect 0 0 12 0;
#X connect 1 0 0 0;
#X connect 2 0 1 0;
#X connect 3 0 14 0;
#X connect 4 0 2 0;
#X connect 5 0 4 0;
#X connect 5 0 10 0;
#X connect 6 0 8 0;
#X connect 8 0 4 1;
#X connect 9 0 11 0;
#X connect 10 0 9 0;
#X connect 11 0 3 0;
#X connect 12 0 13 0;
#X connect 13 0 3 1;
#X connect 14 0 22 0;
#X connect 15 0 22 1;
#X connect 16 0 15 0;
#X connect 17 0 16 0;
#X connect 17 0 19 0;
#X connect 19 0 20 0;
#X connect 20 0 18 0;
#X connect 22 0 7 0;
#X restore 574 401 pd res.trap;
#N canvas 1026 47 1571 1012 square 0;
#X obj 250 462 cos~;
#X obj 304 336 min~;
#X obj 261 264 wrap~;
#X obj 261 195 *~ 2;
#X obj 278 295 expr~ $v1 \; (-1*$v1+1)*(($v2)/(1-$v2));
#X obj 261 378 -~;
#X obj 261 234 +~ 1;
#X obj 133 258 expr~ $v1>=.5;
#X obj 250 422 *~ 0.5;
#X obj 250 524 outlet~;
#X obj 430 256 line~;
#X obj 430 235 pack f 12;
#X obj 133 79 inlet~;
#X obj 364 89 line~;
#X obj 364 68 pack f 12;
#X obj 250 490 *~;
#X obj 364 39 inlet vol;
#X obj 430 116 inlet index;
#X obj 430 196 * 0.98;
#X obj 688 206 switch~;
#X obj 688 158 == 0;
#X obj 688 184 invert;
#X text 721 158 also works for negative volumes;
#X obj 430 165 pow 0.25;
#X connect 0 0 15 0;
#X connect 1 0 5 1;
#X connect 2 0 4 0;
#X connect 2 0 5 0;
#X connect 3 0 6 0;
#X connect 4 0 1 0;
#X connect 4 1 1 1;
#X connect 5 0 8 0;
#X connect 6 0 2 0;
#X connect 7 0 8 0;
#X connect 8 0 0 0;
#X connect 10 0 4 1;
#X connect 11 0 10 0;
#X connect 12 0 7 0;
#X connect 12 0 3 0;
#X connect 13 0 15 1;
#X connect 14 0 13 0;
#X connect 15 0 9 0;
#X connect 16 0 14 0;
#X connect 16 0 20 0;
#X connect 17 0 23 0;
#X connect 18 0 11 0;
#X connect 20 0 21 0;
#X connect 21 0 19 0;
#X connect 23 0 18 0;
#X restore 48 403 pd square;
#N canvas 1026 47 1571 1012 sine.pulse 0;
#X obj 101 96 inlet~;
#X obj 101 500 outlet~;
#X obj 101 436 cos~;
#X obj 168 334 min~;
#X obj 101 375 +~;
#X obj 117 293 expr~ $v1*((.5-$v2)/$v2) \; (-1*$v1+1)*((.5-$v2)/(1-$v2))
;
#X obj 101 404 *~ 2;
#X obj 396 207 line~;
#X obj 396 186 pack f 12;
#X obj 200 102 line~;
#X obj 200 81 pack f 12;
#X obj 200 52 inlet vol;
#X obj 396 37 inlet index;
#X obj 844 221 switch~;
#X obj 844 173 == 0;
#X obj 844 199 invert;
#X text 877 173 also works for negative volumes;
#X obj 396 86 * 0.5;
#X obj 396 108 t b f;
#X obj 396 130 -;
#X obj 295 28 bng 15 250 50 0 empty empty empty 17 7 0 10 -262144 -1
-1;
#X obj 295 50 loadbang;
#X msg 295 72 0.5;
#X obj 396 152 clip 0.01 0.5;
#X obj 101 465 *~;
#X floatatom 478 79 5 0 0 0 - - -;
#X floatatom 528 201 5 0 0 0 - - -;
#X floatatom 272 160 5 0 0 0 - - -;
#X connect 0 0 5 0;
#X connect 0 0 4 0;
#X connect 2 0 24 0;
#X connect 3 0 4 1;
#X connect 4 0 6 0;
#X connect 5 0 3 0;
#X connect 5 1 3 1;
#X connect 6 0 2 0;
#X connect 7 0 5 1;
#X connect 8 0 7 0;
#X connect 9 0 24 1;
#X connect 10 0 9 0;
#X connect 11 0 10 0;
#X connect 11 0 14 0;
#X connect 11 0 27 0;
#X connect 12 0 17 0;
#X connect 12 0 25 0;
#X connect 14 0 15 0;
#X connect 15 0 13 0;
#X connect 17 0 18 0;
#X connect 18 0 19 0;
#X connect 18 1 19 1;
#X connect 19 0 23 0;
#X connect 20 0 21 0;
#X connect 21 0 22 0;
#X connect 22 0 19 0;
#X connect 23 0 8 0;
#X connect 23 0 26 0;
#X connect 24 0 1 0;
#X restore 195 403 pd sine.pulse;
#X obj 224 455 *~ -1;
#X obj 574 445 *~ -1;
#X obj 636 15 inlet~ resFreq;
#X obj -24 19 inlet~ MasterSaw;
#X obj 90 20 inlet square;
#X obj 270 20 inlet pulse;
#X obj 180 20 inlet sqrIndeq;
#X obj 350 20 inlet pulseIndex;
#X obj 460 20 inlet res;
#X obj 534 19 inlet resMult;
#X obj 636 295 *~;
#X obj 650 251 line~;
#X obj 650 230 pack f 12;
#X obj 534 41 t f f;
#X obj 534 63 *;
#X obj 534 85 * 3.75;
#X obj 534 107 + 0.25;
#X connect 1 0 5 0;
#X connect 2 0 0 0;
#X connect 3 0 4 0;
#X connect 4 0 0 0;
#X connect 5 0 0 0;
#X connect 6 0 14 0;
#X connect 7 0 1 0;
#X connect 7 0 3 0;
#X connect 7 0 2 0;
#X connect 8 0 2 1;
#X connect 9 0 3 1;
#X connect 10 0 2 2;
#X connect 11 0 3 2;
#X connect 12 0 1 1;
#X connect 13 0 17 0;
#X connect 14 0 1 2;
#X connect 15 0 14 1;
#X connect 16 0 15 0;
#X connect 17 0 18 0;
#X connect 17 1 18 1;
#X connect 18 0 19 0;
#X connect 19 0 20 0;
#X connect 20 0 16 0;
