#N canvas 1026 49 1571 1007 10;
#X obj -606 576 outlet~;
#X obj -539 622 outlet~;
#N canvas 1026 49 1571 1007 del 1;
#X obj -923 238 outlet~;
#X obj -860 218 outlet~;
#X obj -1043 54 delread~ \$1-left;
#X obj -913 54 delread~ \$1-right;
#X obj -860 154 r \$1-choosefX;
#X obj -1043 8 inlet delTime;
#X obj -892 108 inlet level;
#X obj -876 128 inlet parameter;
#X obj -725 23 inlet switch;
#X obj -725 45 switch~;
#X floatatom -662 85 5 0 0 0 - - -;
#N canvas 1026 47 1571 928 InsertFX 0;
#X obj 416 198 inlet choose;
#X obj 166 198 inlet level;
#X obj 266 198 inlet parameter;
#N canvas 1026 47 1571 928 pan 0;
#X obj -754 35 inlet~ sound;
#X obj -610 35 inlet parameter;
#X obj -420 35 inlet OnOff;
#X obj -758 269 line~;
#X obj -717 311 *~;
#X obj -758 246 pack 0 50;
#X obj -717 341 outlet~;
#X text -404 17 1 or 0;
#X text -593 18 0 to 127;
#X obj -610 57 / 127;
#X obj -864 35 inlet~ sound;
#X obj -868 269 line~;
#X obj -827 311 *~;
#X obj -868 246 pack 0 50;
#X obj -827 341 outlet~;
#X obj -782 150 motex/pan~;
#X obj -610 79 * 90;
#X obj -610 101 - 45;
#X text -703 150 takes -45 to 45;
#X obj -420 63 switch~;
#X connect 0 0 15 0;
#X connect 1 0 9 0;
#X connect 2 0 5 0;
#X connect 2 0 13 0;
#X connect 2 0 19 0;
#X connect 3 0 4 0;
#X connect 4 0 6 0;
#X connect 5 0 3 0;
#X connect 9 0 16 0;
#X connect 10 0 15 0;
#X connect 11 0 12 0;
#X connect 12 0 14 0;
#X connect 13 0 11 0;
#X connect 15 0 12 1;
#X connect 15 1 4 1;
#X connect 16 0 17 0;
#X connect 17 0 15 1;
#X restore 75 360 pd pan;
#X obj -26 302 select 0;
#X msg -26 324 1;
#X msg 27 324 0;
#X msg 114 326 1;
#X msg 167 326 0;
#X obj 114 304 select 1;
#X obj -23 361 *~;
#X obj 27 361 *~;
#X text -29 29 a transformation to do on inlet 1 and 2;
#X text -34 124 inlet 5 is the parameter of the effect;
#X text -31 56 inlet 3 is level;
#X obj -34 198 inlet~ left;
#X obj 55 198 inlet~ right;
#N canvas 2 49 1648 1007 level 0;
#X obj 26 35 inlet~ sound;
#X obj 170 35 inlet parameter;
#X obj -53 153 line~;
#X obj 8 195 *~;
#X obj -53 130 pack 0 50;
#X obj 8 225 outlet~;
#X text 187 18 0 to 127;
#X obj 170 57 / 127;
#X obj -84 35 inlet~ sound;
#X obj -163 153 line~;
#X obj -102 195 *~;
#X obj -163 130 pack 0 50;
#X obj -102 225 outlet~;
#X connect 0 0 3 1;
#X connect 1 0 7 0;
#X connect 2 0 3 0;
#X connect 3 0 5 0;
#X connect 4 0 2 0;
#X connect 7 0 4 0;
#X connect 7 0 11 0;
#X connect 8 0 10 1;
#X connect 9 0 10 0;
#X connect 10 0 12 0;
#X connect 11 0 9 0;
#X restore 166 753 pd level;
#X obj 166 800 outlet~ left;
#X obj 266 800 outlet~ right;
#X floatatom 166 220 5 0 0 0 - - -;
#X floatatom 416 220 5 0 0 0 - - -;
#N canvas 1026 47 1571 1012 filter 0;
#X obj 26 35 inlet~ sound;
#X obj 170 35 inlet parameter;
#X obj 360 35 inlet OnOff;
#X obj 72 369 line~;
#X obj 113 411 *~;
#X obj 72 346 pack 0 50;
#X obj 113 441 outlet~;
#X text 376 17 1 or 0;
#X text 187 18 0 to 127;
#X obj 170 57 / 127;
#X obj -84 35 inlet~ sound;
#X obj -38 369 line~;
#X obj 3 411 *~;
#X obj -38 346 pack 0 50;
#X obj 3 441 outlet~;
#X obj -85 177 lop~;
#X obj 25 177 lop~;
#X obj 307 218 mtof;
#X floatatom 315 175 5 0 0 0 - - -;
#X floatatom 307 240 9 0 0 0 - - -;
#X obj 170 125 mtof;
#X obj 170 101 + 16;
#X obj 170 79 * 119;
#X text 216 103 20 Hz to 20 kHz;
#X obj 360 63 switch~;
#X connect 0 0 16 0;
#X connect 1 0 9 0;
#X connect 2 0 5 0;
#X connect 2 0 13 0;
#X connect 2 0 24 0;
#X connect 3 0 4 0;
#X connect 4 0 6 0;
#X connect 5 0 3 0;
#X connect 9 0 22 0;
#X connect 10 0 15 0;
#X connect 11 0 12 0;
#X connect 12 0 14 0;
#X connect 13 0 11 0;
#X connect 15 0 12 1;
#X connect 16 0 4 1;
#X connect 17 0 19 0;
#X connect 18 0 17 0;
#X connect 20 0 15 1;
#X connect 20 0 16 1;
#X connect 21 0 20 0;
#X connect 22 0 21 0;
#X restore 217 360 pd filter;
#X msg 277 330 1;
#X msg 330 330 0;
#X obj 277 308 select 2;
#X msg 459 330 1;
#X msg 512 330 0;
#X obj 459 308 select 3;
#N canvas 1026 47 1571 1012 grunge 0;
#X obj 170 35 inlet parameter;
#X obj 360 35 inlet OnOff;
#X obj 22 379 line~;
#X obj 63 421 *~;
#X obj 22 356 pack 0 50;
#X obj 63 451 outlet~;
#X text 376 17 1 or 0;
#X text 187 18 0 to 127;
#X obj -88 379 line~;
#X obj -47 421 *~;
#X obj -88 356 pack 0 50;
#X obj -47 451 outlet~;
#X obj -84 35 inlet~ left;
#X obj 26 35 inlet~ right;
#X obj -84 240 expr~ tanh($v1 * $v2);
#X obj -84 262 lop~ 20000;
#X obj 86 240 expr~ tanh($v1 * $v2);
#X obj 86 262 lop~ 20000;
#X obj -84 214 lop~ 20000;
#X obj 86 214 lop~ 20000;
#X floatatom 130 12 5 0 0 0 - - -;
#X obj 360 63 switch~ 256 1 4;
#X obj 170 57 / 2;
#X connect 0 0 22 0;
#X connect 1 0 4 0;
#X connect 1 0 10 0;
#X connect 1 0 21 0;
#X connect 2 0 3 0;
#X connect 3 0 5 0;
#X connect 4 0 2 0;
#X connect 8 0 9 0;
#X connect 9 0 11 0;
#X connect 10 0 8 0;
#X connect 12 0 18 0;
#X connect 13 0 19 0;
#X connect 14 0 15 0;
#X connect 15 0 9 1;
#X connect 16 0 17 0;
#X connect 17 0 3 1;
#X connect 18 0 14 0;
#X connect 19 0 16 0;
#X connect 20 0 22 0;
#X connect 22 0 14 1;
#X connect 22 0 16 1;
#X restore 399 364 pd grunge;
#X msg 629 330 1;
#X msg 682 330 0;
#N canvas 1026 47 1571 928 pitch 0;
#X obj 170 35 inlet parameter;
#X obj 400 35 inlet OnOff;
#X obj 22 379 line~;
#X obj 63 421 *~;
#X obj 22 356 pack 0 50;
#X obj 63 451 outlet~;
#X text 416 17 1 or 0;
#X text 187 18 0 to 127;
#X obj -88 379 line~;
#X obj -47 421 *~;
#X obj -88 356 pack 0 50;
#X obj -47 451 outlet~;
#X obj -84 35 inlet~ left;
#X obj 26 35 inlet~ right;
#X text 207 312 [soundtouch~] takes two optional initialization arguments.
The first argument is the processing grain size in milliseconds. For
more details \, open [pd settings]. An optional second argument will
set the number of channels (1 or 2). One channel is the default \,
but [soundtouch~] can process two channels in phase-aligned stereo
(see subpatch [timestretching]).;
#X obj -28 205 soundtouch~ 40 2;
#X floatatom 79 170 5 0 0 0 - - -;
#X obj 170 57 % 36;
#X obj 170 101 + 0.25;
#X text 251 81 0 to 1.75;
#X text 208 58 three octaves \, 0 to 36;
#X text 218 102 0.25 to 2;
#X floatatom 170 123 5 0 0 0 - - -;
#X obj 170 79 * 0.0486111;
#X obj 400 63 switch~;
#X connect 0 0 17 0;
#X connect 1 0 4 0;
#X connect 1 0 10 0;
#X connect 1 0 24 0;
#X connect 2 0 3 0;
#X connect 3 0 5 0;
#X connect 4 0 2 0;
#X connect 8 0 9 0;
#X connect 9 0 11 0;
#X connect 10 0 8 0;
#X connect 12 0 15 0;
#X connect 13 0 15 1;
#X connect 15 0 9 1;
#X connect 15 1 3 1;
#X connect 16 0 15 2;
#X connect 17 0 23 0;
#X connect 18 0 15 2;
#X connect 18 0 22 0;
#X connect 23 0 18 0;
#X restore 569 364 pd pitch;
#X obj 629 308 select 4;
#X text -34 82 inlet 4 chooses between effects:bypass \, pan \, filter
\, grunge \, transpose \, absolute pitch (not done yet \, not sure
if usefull);
#X connect 0 0 4 0;
#X connect 0 0 9 0;
#X connect 0 0 21 0;
#X connect 0 0 25 0;
#X connect 0 0 28 0;
#X connect 0 0 33 0;
#X connect 1 0 17 2;
#X connect 1 0 20 0;
#X connect 2 0 3 2;
#X connect 2 0 22 2;
#X connect 2 0 29 2;
#X connect 2 0 32 2;
#X connect 3 0 17 0;
#X connect 3 1 17 1;
#X connect 4 0 5 0;
#X connect 4 1 6 0;
#X connect 5 0 10 1;
#X connect 5 0 11 0;
#X connect 6 0 10 1;
#X connect 6 0 11 0;
#X connect 7 0 3 3;
#X connect 8 0 3 3;
#X connect 9 0 7 0;
#X connect 9 1 8 0;
#X connect 10 0 17 0;
#X connect 11 0 17 1;
#X connect 15 0 10 0;
#X connect 15 0 3 0;
#X connect 15 0 22 0;
#X connect 15 0 29 0;
#X connect 15 0 32 0;
#X connect 16 0 11 1;
#X connect 16 0 3 1;
#X connect 16 0 22 1;
#X connect 16 0 29 1;
#X connect 16 0 32 1;
#X connect 17 0 18 0;
#X connect 17 1 19 0;
#X connect 22 0 17 0;
#X connect 22 1 17 1;
#X connect 23 0 22 3;
#X connect 24 0 22 3;
#X connect 25 0 23 0;
#X connect 25 1 24 0;
#X connect 26 0 29 3;
#X connect 27 0 29 3;
#X connect 28 0 26 0;
#X connect 28 1 27 0;
#X connect 29 0 17 0;
#X connect 29 1 17 1;
#X connect 30 0 32 3;
#X connect 31 0 32 3;
#X connect 32 0 17 0;
#X connect 32 1 17 1;
#X connect 33 0 30 0;
#X connect 33 1 31 0;
#X restore -923 186 pd InsertFX;
#X connect 2 0 11 0;
#X connect 3 0 11 1;
#X connect 4 0 11 4;
#X connect 5 0 2 0;
#X connect 5 0 3 0;
#X connect 6 0 11 2;
#X connect 7 0 11 3;
#X connect 8 0 9 0;
#X connect 8 0 10 0;
#X connect 11 0 0 0;
#X connect 11 1 1 0;
#X restore -607 526 pd del \$0 \$1;
#X obj -607 366 unpack 1 2 3;
#X text -517 367 delay \, level and parameter;
#X obj -607 344 mtx 12 3;
#X text -547 346 12 sets of delay \, level and parameter;
#X obj -607 234 r \$1-update;
#X obj -562 314 r \$1-DelayMatrix;
#X msg -607 257 row;
#X obj -607 282 iem_append \$2;
#X obj -158 99 select 0;
#X obj -158 70 r \$1-delEnv;
#X obj -159 444 spigot;
#X obj -158 341 line;
#X msg -134 300 0;
#X obj -158 402 == 1;
#X obj -106 385 loadbang;
#X msg -106 410 1;
#X text -94 336 been received in the last 15;
#X text -93 350 milliseconds;
#X obj -158 226 t b b b;
#X text -95 321 passes a BANG only if one has not;
#X obj -202 308 pack 1 f;
#X msg -159 466 0;
#X obj -159 488 pipe;
#X obj -283 364 + 30;
#X obj -113 123 t b f;
#X connect 2 0 0 0;
#X connect 2 1 1 0;
#X connect 3 0 2 0;
#X connect 3 0 26 0;
#X connect 3 1 2 1;
#X connect 3 2 2 2;
#X connect 5 0 3 0;
#X connect 7 0 9 0;
#X connect 8 0 5 1;
#X connect 9 0 10 0;
#X connect 10 0 5 0;
#X connect 11 0 21 0;
#X connect 11 1 27 0;
#X connect 12 0 11 0;
#X connect 13 0 24 0;
#X connect 14 0 16 0;
#X connect 15 0 14 0;
#X connect 16 0 13 1;
#X connect 17 0 18 0;
#X connect 18 0 13 1;
#X connect 21 0 23 0;
#X connect 21 2 13 0;
#X connect 23 0 14 0;
#X connect 24 0 25 0;
#X connect 25 0 2 3;
#X connect 26 0 25 1;
#X connect 27 0 15 0;
#X connect 27 1 2 3;
