#N canvas 1026 49 1571 1007 10;
#X obj 286 254 sig~;
#X obj 251 255 *~ 1;
#X obj 286 23 inlet pitch;
#X obj 214 23 inlet~ voc;
#X obj 82 23 inlet~ limitedVoc;
#N canvas 1026 49 1571 1007 dynamics 1;
#X obj 535 587 inlet~;
#X obj 535 688 *~;
#X obj 536 731 outlet~;
#X obj 873 277 * 5.63875;
#X obj 873 293 + 1;
#X obj 873 309 log;
#X obj 873 325 / 1.89292;
#N canvas 1026 49 1571 1007 1- 0;
#X obj 93 24 inlet;
#X obj 94 58 t b f;
#X msg 88 93 1;
#X obj 88 161 outlet;
#X obj 88 129 -;
#X connect 0 0 1 0;
#X connect 1 0 2 0;
#X connect 1 1 4 1;
#X connect 2 0 4 0;
#X connect 4 0 3 0;
#X restore 782 255 pd 1-;
#X text 914 301 3dB equal power curve;
#X obj 782 277 * 5.63875;
#X obj 782 293 + 1;
#X obj 782 309 log;
#X obj 782 325 / 1.89292;
#X obj 924 8 inlet;
#X obj 684 689 *~;
#X obj 580 589 line~;
#X obj 580 568 pack f 12;
#X obj 748 589 line~;
#X obj 748 568 pack f 12;
#X obj 685 587 inlet~;
#X obj 873 170 spigot;
#X obj 873 192 * 2;
#X obj 924 96 < 0.5;
#X obj 1174 277 * 5.63875;
#X obj 1174 293 + 1;
#X obj 1174 309 log;
#X obj 1174 325 / 1.89292;
#N canvas 1026 47 1571 1012 1- 0;
#X obj 93 24 inlet;
#X obj 94 58 t b f;
#X msg 88 93 1;
#X obj 88 161 outlet;
#X obj 88 129 -;
#X connect 0 0 1 0;
#X connect 1 0 2 0;
#X connect 1 1 4 1;
#X connect 2 0 4 0;
#X connect 4 0 3 0;
#X restore 1083 255 pd 1-;
#X obj 1083 277 * 5.63875;
#X obj 1083 293 + 1;
#X obj 1083 309 log;
#X obj 1083 325 / 1.89292;
#X obj 1083 170 spigot;
#X obj 924 30 t f f f;
#N canvas 1026 47 1571 1012 1- 0;
#X obj 93 24 inlet;
#X obj 94 58 t b f;
#X msg 88 93 1;
#X obj 88 161 outlet;
#X obj 88 129 -;
#X connect 0 0 1 0;
#X connect 1 0 2 0;
#X connect 1 1 4 1;
#X connect 2 0 4 0;
#X connect 4 0 3 0;
#X restore 1116 146 pd 1-;
#X obj 924 118 t f f;
#X obj 1083 192 - 0.5;
#X obj 1083 214 * 2;
#X floatatom 787 534 5 0 0 0 - - -;
#X obj 765 68 vsl 15 128 0 1 0 0 empty empty empty 0 -9 0 10 -262144
-1 -1 0 1;
#X obj 1174 347 * -1;
#X floatatom 623 527 5 0 0 0 - - -;
#X connect 0 0 1 0;
#X connect 1 0 2 0;
#X connect 3 0 4 0;
#X connect 4 0 5 0;
#X connect 5 0 6 0;
#X connect 6 0 18 0;
#X connect 6 0 38 0;
#X connect 7 0 9 0;
#X connect 9 0 10 0;
#X connect 10 0 11 0;
#X connect 11 0 12 0;
#X connect 12 0 16 0;
#X connect 12 0 41 0;
#X connect 13 0 33 0;
#X connect 14 0 2 0;
#X connect 15 0 1 1;
#X connect 16 0 15 0;
#X connect 17 0 14 1;
#X connect 18 0 17 0;
#X connect 19 0 14 0;
#X connect 20 0 21 0;
#X connect 21 0 7 0;
#X connect 21 0 3 0;
#X connect 22 0 35 0;
#X connect 23 0 24 0;
#X connect 24 0 25 0;
#X connect 25 0 26 0;
#X connect 26 0 40 0;
#X connect 27 0 28 0;
#X connect 28 0 29 0;
#X connect 29 0 30 0;
#X connect 30 0 31 0;
#X connect 31 0 18 0;
#X connect 32 0 36 0;
#X connect 33 0 22 0;
#X connect 33 1 20 0;
#X connect 33 2 32 0;
#X connect 34 0 32 1;
#X connect 35 0 20 1;
#X connect 35 1 34 0;
#X connect 36 0 37 0;
#X connect 37 0 27 0;
#X connect 37 0 23 0;
#X connect 39 0 33 0;
#X connect 40 0 41 0;
#X connect 40 0 16 0;
#X restore 182 161 pd dynamics;
#X text 29 140 crossfades from no dynamics to normal dynamics to reversed
ones;
#X obj 536 23 inlet dyn;
#X obj 456 23 inlet index;
#X obj 285 332 osc~;
#X obj 375 21 inlet vol;
#X obj 375 313 line~;
#X obj 375 292 pack f 12;
#X obj 285 354 *~;
#X obj 285 389 outlet~;
#X obj 456 95 t f f;
#X obj 456 117 *;
#X floatatom 375 43 5 0 0 0 - - -;
#X obj 456 161 * 15000;
#X connect 0 0 9 0;
#X connect 1 0 9 0;
#X connect 2 0 0 0;
#X connect 3 0 5 1;
#X connect 4 0 5 0;
#X connect 5 0 1 0;
#X connect 7 0 5 2;
#X connect 8 0 15 0;
#X connect 9 0 13 0;
#X connect 10 0 12 0;
#X connect 10 0 17 0;
#X connect 11 0 13 1;
#X connect 12 0 11 0;
#X connect 13 0 14 0;
#X connect 15 0 16 0;
#X connect 15 1 16 1;
#X connect 16 0 18 0;
#X connect 18 0 1 1;
