#N canvas 1026 47 1571 1012 10;
#X obj 435 -537 inlet~ voc;
#X obj 459 -331 filterbank~ 80 16000 16;
#X obj 399 22 outlet~ vocoder;
#X text 190 -436 formant pitch;
#X obj 706 -476 inlet pitch;
#X text 787 -476 pitch;
#X obj 277 -436 r fofFreqs-\$1;
#X obj 277 -414 unpack 1 2 3 4 5 6 7 8 9 10 11 12 13 14 15 16;
#X floatatom 620 -408 5 0 0 0 - - -;
#X obj 716 -393 s pitch-\$2;
#X obj 56 -122 fof \$1 \$2;
#X obj 398 -31 *~ 0.1;
#X obj 116 -122 fof \$1 \$2;
#X obj 176 -122 fof \$1 \$2;
#X obj 236 -122 fof \$1 \$2;
#X obj 296 -122 fof \$1 \$2;
#X obj 356 -122 fof \$1 \$2;
#X obj 416 -122 fof \$1 \$2;
#X obj 476 -122 fof \$1 \$2;
#X obj 536 -122 fof \$1 \$2;
#X obj 596 -122 fof \$1 \$2;
#X obj 658 -122 fof \$1 \$2;
#X obj 716 -122 fof \$1 \$2;
#X obj 776 -122 fof \$1 \$2;
#X obj 836 -122 fof \$1 \$2;
#X obj 896 -122 fof \$1 \$2;
#X obj 958 -122 fof \$1 \$2;
#X connect 0 0 1 0;
#X connect 1 0 10 1;
#X connect 1 1 12 1;
#X connect 1 2 13 1;
#X connect 1 3 14 1;
#X connect 1 4 15 1;
#X connect 1 5 16 1;
#X connect 1 6 17 1;
#X connect 1 7 18 1;
#X connect 1 8 19 1;
#X connect 1 9 20 1;
#X connect 1 10 21 1;
#X connect 1 11 22 1;
#X connect 1 12 23 1;
#X connect 1 13 24 1;
#X connect 1 14 25 1;
#X connect 1 15 26 1;
#X connect 4 0 9 0;
#X connect 6 0 7 0;
#X connect 7 0 10 0;
#X connect 7 1 12 0;
#X connect 7 2 13 0;
#X connect 7 3 14 0;
#X connect 7 4 15 0;
#X connect 7 5 16 0;
#X connect 7 6 17 0;
#X connect 7 7 18 0;
#X connect 7 8 19 0;
#X connect 7 9 20 0;
#X connect 7 10 21 0;
#X connect 7 11 22 0;
#X connect 7 12 23 0;
#X connect 7 13 24 0;
#X connect 7 14 25 0;
#X connect 7 15 8 0;
#X connect 7 15 26 0;
#X connect 10 0 11 0;
#X connect 11 0 2 0;
#X connect 12 0 11 0;
#X connect 13 0 11 0;
#X connect 14 0 11 0;
#X connect 15 0 11 0;
#X connect 16 0 11 0;
#X connect 17 0 11 0;
#X connect 18 0 11 0;
#X connect 19 0 11 0;
#X connect 20 0 11 0;
#X connect 21 0 11 0;
#X connect 22 0 11 0;
#X connect 23 0 11 0;
#X connect 24 0 11 0;
#X connect 25 0 11 0;
#X connect 26 0 11 0;
