#N canvas 1026 49 1571 1007 10;
#X obj 399 112 outlet~ vocoder;
#X text 190 -436 formant pitch;
#X obj 706 -476 inlet pitch;
#X text 787 -476 pitch;
#X obj 277 -456 r fofFreqs-\$1;
#X obj 277 -414 unpack 1 2 3 4 5 6 7 8 9 10 11 12 13 14 15 16;
#X floatatom 620 -408 5 0 0 0 - - -;
#X obj 748 -387 s pitch-\$2;
#X obj 107 -287 line~;
#X obj 167 -287 line~;
#X obj 227 -287 line~;
#X obj 287 -287 line~;
#X obj 347 -287 line~;
#X obj 407 -287 line~;
#X obj 467 -287 line~;
#X obj 527 -287 line~;
#X obj 587 -287 line~;
#X obj 647 -287 line~;
#X obj 707 -287 line~;
#X obj 767 -287 line~;
#X obj 827 -287 line~;
#X obj 887 -287 line~;
#X obj 947 -287 line~;
#X obj 1007 -287 line~;
#X obj 115 -351 unpack 1 2 3 4 5 6 7 8 9 10 11 12 13 14 15 16;
#X obj 115 -374 r spectrum-\$1;
#X floatatom 277 -392 5 0 0 0 - - -;
#X obj 56 -262 fof \$1 \$2 1;
#X obj 1361 -306 r fofFall-\$1;
#X obj 1361 -151 line~;
#X obj 1361 -172 pack f 3;
#X obj 1361 -262 * 0.002;
#X obj 1361 -284 - 142;
#X obj 1361 -240 clip 0 1;
#X obj 398 61 *~;
#X obj 1361 -195 + 0.7;
#X obj 1361 -218 * -0.5;
#X obj 107 -308 pack f 3;
#X obj 167 -308 pack f 3;
#X obj 227 -308 pack f 3;
#X obj 287 -309 pack f 3;
#X obj 347 -308 pack f 3;
#X obj 407 -308 pack f 3;
#X obj 467 -308 pack f 3;
#X obj 527 -308 pack f 3;
#X obj 587 -308 pack f 3;
#X obj 647 -308 pack f 3;
#X obj 707 -308 pack f 3;
#X obj 767 -308 pack f 3;
#X obj 827 -308 pack f 3;
#X obj 887 -308 pack f 3;
#X obj 947 -308 pack f 3;
#X obj 1007 -308 pack f 3;
#X obj 136 -262 fof \$1 \$2 2;
#X obj 216 -262 fof \$1 \$2 3;
#X obj 296 -262 fof \$1 \$2 4;
#X obj 376 -262 fof \$1 \$2 5;
#X obj 456 -262 fof \$1 \$2 6;
#X obj 536 -262 fof \$1 \$2 7;
#X obj 616 -262 fof \$1 \$2 8;
#X obj 696 -262 fof \$1 \$2 9;
#X obj 776 -262 fof \$1 \$2 10;
#X obj 858 -262 fof \$1 \$2 11;
#X obj 936 -262 fof \$1 \$2 12;
#X obj 1016 -262 fof \$1 \$2 13;
#X obj 1096 -262 fof \$1 \$2 14;
#X obj 1176 -262 fof \$1 \$2 15;
#X obj 1258 -262 fof \$1 \$2 16;
#X obj 398 83 *~ 4;
#X connect 2 0 7 0;
#X connect 4 0 5 0;
#X connect 5 0 26 0;
#X connect 5 0 27 0;
#X connect 5 1 53 0;
#X connect 5 2 54 0;
#X connect 5 3 55 0;
#X connect 5 4 56 0;
#X connect 5 5 57 0;
#X connect 5 6 58 0;
#X connect 5 7 59 0;
#X connect 5 8 60 0;
#X connect 5 9 61 0;
#X connect 5 10 62 0;
#X connect 5 11 63 0;
#X connect 5 12 64 0;
#X connect 5 13 65 0;
#X connect 5 14 66 0;
#X connect 5 15 6 0;
#X connect 5 15 67 0;
#X connect 8 0 27 1;
#X connect 9 0 53 1;
#X connect 10 0 54 1;
#X connect 11 0 55 1;
#X connect 12 0 56 1;
#X connect 13 0 57 1;
#X connect 14 0 58 1;
#X connect 15 0 59 1;
#X connect 16 0 60 1;
#X connect 17 0 61 1;
#X connect 18 0 62 1;
#X connect 19 0 63 1;
#X connect 20 0 64 1;
#X connect 21 0 65 1;
#X connect 22 0 66 1;
#X connect 23 0 67 1;
#X connect 24 0 37 0;
#X connect 24 1 38 0;
#X connect 24 2 39 0;
#X connect 24 3 40 0;
#X connect 24 4 41 0;
#X connect 24 5 42 0;
#X connect 24 6 43 0;
#X connect 24 7 44 0;
#X connect 24 8 45 0;
#X connect 24 9 46 0;
#X connect 24 10 47 0;
#X connect 24 11 48 0;
#X connect 24 12 49 0;
#X connect 24 13 50 0;
#X connect 24 14 51 0;
#X connect 24 15 52 0;
#X connect 25 0 24 0;
#X connect 27 0 34 0;
#X connect 28 0 32 0;
#X connect 29 0 34 1;
#X connect 30 0 29 0;
#X connect 31 0 33 0;
#X connect 32 0 31 0;
#X connect 33 0 36 0;
#X connect 34 0 68 0;
#X connect 35 0 30 0;
#X connect 36 0 35 0;
#X connect 37 0 8 0;
#X connect 38 0 9 0;
#X connect 39 0 10 0;
#X connect 40 0 11 0;
#X connect 41 0 12 0;
#X connect 42 0 13 0;
#X connect 43 0 14 0;
#X connect 44 0 15 0;
#X connect 45 0 16 0;
#X connect 46 0 17 0;
#X connect 47 0 18 0;
#X connect 48 0 19 0;
#X connect 49 0 20 0;
#X connect 50 0 21 0;
#X connect 51 0 22 0;
#X connect 52 0 23 0;
#X connect 53 0 34 0;
#X connect 54 0 34 0;
#X connect 55 0 34 0;
#X connect 56 0 34 0;
#X connect 57 0 34 0;
#X connect 58 0 34 0;
#X connect 59 0 34 0;
#X connect 60 0 34 0;
#X connect 61 0 34 0;
#X connect 62 0 34 0;
#X connect 63 0 34 0;
#X connect 64 0 34 0;
#X connect 65 0 34 0;
#X connect 66 0 34 0;
#X connect 67 0 34 0;
#X connect 68 0 0 0;
