#N canvas 1026 47 1571 1012 10;
#X obj 231 59 inlet~;
#X obj 445 538 outlet~;
#X obj 620 60 inlet;
#X obj 504 60 inlet revtime;
#X obj 533 365 dbtorms;
#X obj 620 341 t b;
#X obj 457 356 t b f;
#X obj 469 396 -;
#X obj 470 465 line~;
#X obj 470 444 pack 0 100;
#X obj 457 377 105;
#X obj 444 487 *~;
#X obj 470 421 * 0.01;
#X text 470 276 reverb decay speed;
#X text 466 290 (dB left after 1 sec);
#X text 613 295 bang to clear;
#X obj 232 252 rev1-stage \$1 \$1-del1 0 8;
#X obj 232 275 rev1-stage \$1 \$1-del2 1 14.32;
#X obj 232 298 rev1-stage \$1 \$1-del3 2 25.6328;
#X obj 232 321 rev1-stage \$1 \$1-del4 3 45.8827;
#X obj 232 344 rev1-stage \$1 \$1-del5 4 82.1301;
#X obj 232 367 rev1-stage \$1 \$1-del6 5 147.013;
#X obj 232 390 rev1-stage \$1 \$1-del7 6 263.153;
#X obj 232 413 rev1-stage \$1 \$1-del8 7 471.044;
#X obj 232 436 rev1-stage \$1 \$1-del9 8 843.168;
#X obj 232 459 rev1-final \$1 \$1-del10 9 1509.27;
#X obj 534 388 s \$1-decay;
#X obj 620 364 s \$1-clear;
#X obj 504 331 min 100;
#X connect 0 0 16 0;
#X connect 2 0 5 0;
#X connect 3 0 28 0;
#X connect 4 0 26 0;
#X connect 5 0 27 0;
#X connect 6 0 10 0;
#X connect 6 1 7 1;
#X connect 7 0 12 0;
#X connect 8 0 11 1;
#X connect 9 0 8 0;
#X connect 10 0 7 0;
#X connect 11 0 1 0;
#X connect 12 0 9 0;
#X connect 16 0 17 0;
#X connect 16 1 17 1;
#X connect 17 0 18 0;
#X connect 17 1 18 1;
#X connect 18 0 19 0;
#X connect 18 1 19 1;
#X connect 19 0 20 0;
#X connect 19 1 20 1;
#X connect 20 0 21 0;
#X connect 20 1 21 1;
#X connect 21 0 22 0;
#X connect 21 1 22 1;
#X connect 22 0 23 0;
#X connect 22 1 23 1;
#X connect 23 0 24 0;
#X connect 23 1 24 1;
#X connect 24 0 25 0;
#X connect 24 1 25 1;
#X connect 25 1 11 0;
#X connect 28 0 4 0;
#X connect 28 0 6 0;
