#N canvas 1026 47 1571 1012 10;
#X obj 242 279 vline~;
#X obj 242 301 dbtorms~;
#X obj 52 349 *~;
#X obj 51 300 bpq2~ 1000 1 3000;
#X obj 180 221 t b b;
#X obj 123 215 t b b;
#X obj 123 195 del 30;
#X obj 53 372 hip~ 800;
#X obj 123 238 1.5;
#X obj 148 239 50;
#X obj 180 243 0.7;
#X obj 205 243 0;
#X obj 123 172 t b b f;
#X msg 242 243 \$1 \, 0 34 \, \$1 0.5 10.5 \, 0 34 11 \, \$1 0 23 \,
0 34 23 \, \$1 0 31 \, 0 34 31 \, \$1 0 36 \, 0 230 36.5 \, 0 500 65
\, 0 2000 120;
#X obj 54 401 outlet~;
#X text 479 388 Author: Roman Haefeli;
#X obj 359 320 del 2122;
#X obj 329 298 t b b;
#X obj 359 342 0;
#X obj 329 340 1;
#X obj 329 376 t a;
#X obj 344 403 switch~;
#X obj 329 424 outlet;
#X text 348 100 externals:;
#X text 346 118 [bpq2~] from the iemabs (uses [filter~] from iemlib1)
;
#X text 477 409 Version: 2007-09-13;
#X obj 51 261 inlet~;
#X obj 287 23 inlet freq;
#X obj 123 125 t b b;
#X obj 123 23 inlet trig;
#X obj 193 23 inlet gain;
#X obj 123 147 f;
#X connect 0 0 1 0;
#X connect 1 0 2 1;
#X connect 2 0 7 0;
#X connect 3 0 2 0;
#X connect 4 0 10 0;
#X connect 4 1 11 0;
#X connect 5 0 8 0;
#X connect 5 1 9 0;
#X connect 6 0 5 0;
#X connect 7 0 14 0;
#X connect 8 0 3 2;
#X connect 9 0 3 3;
#X connect 10 0 3 2;
#X connect 11 0 3 3;
#X connect 12 0 6 0;
#X connect 12 1 4 0;
#X connect 12 2 13 0;
#X connect 13 0 0 0;
#X connect 16 0 18 0;
#X connect 17 0 19 0;
#X connect 17 1 16 0;
#X connect 18 0 20 0;
#X connect 19 0 20 0;
#X connect 20 0 21 0;
#X connect 20 0 22 0;
#X connect 26 0 3 0;
#X connect 27 0 3 1;
#X connect 28 0 31 0;
#X connect 28 1 17 0;
#X connect 29 0 28 0;
#X connect 30 0 31 1;
#X connect 31 0 12 0;
