#N canvas 1026 47 1571 1012 10;
#X obj 200 364 s oct-\$2-\$1;
#X obj 272 135 ps oct-\$2-\$1;
#X obj 30 177 * 0.25;
#X obj 80 177 * 0.5;
#X obj 120 155 == 2;
#X obj 160 177 * 2;
#X obj 80 249 +;
#X obj 80 199 t b f;
#X obj 120 279 +;
#X obj 120 199 t b f;
#X obj 160 309 +;
#X obj 160 199 t b f;
#X obj 200 339 +;
#X obj 200 199 t b f;
#X obj 200 177 * 4;
#X obj 30 155 == 4;
#X obj 80 155 == 3;
#X obj 160 155 == 1;
#X obj 200 155 == 0;
#X obj 100 100 vradio 10 1 0 5 empty empty empty 0 -8 0 10 -262144
-1 -1 0;
#X text 110 117 0;
#X text 110 126 -1;
#X text 110 136 -2;
#X text 110 107 1;
#X text 110 97 2;
#X connect 1 0 19 0;
#X connect 2 0 6 0;
#X connect 3 0 7 0;
#X connect 4 0 9 0;
#X connect 5 0 11 0;
#X connect 6 0 8 0;
#X connect 7 0 6 0;
#X connect 7 1 6 1;
#X connect 8 0 10 0;
#X connect 9 0 8 0;
#X connect 9 1 8 1;
#X connect 10 0 12 0;
#X connect 11 0 10 0;
#X connect 11 1 10 1;
#X connect 12 0 0 0;
#X connect 13 0 12 0;
#X connect 13 1 12 1;
#X connect 14 0 13 0;
#X connect 15 0 2 0;
#X connect 16 0 3 0;
#X connect 17 0 5 0;
#X connect 18 0 14 0;
#X connect 19 0 1 0;
#X connect 19 0 4 0;
#X connect 19 0 15 0;
#X connect 19 0 16 0;
#X connect 19 0 17 0;
#X connect 19 0 18 0;
#X coords 0 1012 1 1011 10 50 2 100 100;
