#N canvas 1026 47 1571 1012 10;
#X obj 520 470 *~;
#X obj 942 244 line~;
#X obj 218 590 cos~;
#X obj 218 546 +~;
#X obj 942 218 pack 0 50;
#X obj 942 192 / 100;
#X text 916 127 modulation index;
#X text 916 142 in hundredths;
#X text 215 13 carrier;
#X text 214 31 frequency;
#X text 351 200 frequency;
#X text 347 189 modulation;
#X text 143 327 carrier;
#X text 143 342 phase -->;
#X text 95 545 modulation-->;
#X text 102 572 output;
#X text 101 589 waveform -->;
#X text 1038 198 ramped to avoid;
#X text 1037 214 clicks.);
#X text 1037 182 (the index is;
#X obj 218 702 outlet~;
#X obj 219 345 wrap~;
#X obj 219 323 *~ 4;
#X obj 240 291 inlet multiplier;
#X obj 416 214 wrap~;
#X obj 916 164 r PMindex-\$1;
#X floatatom 940 313 5 0 0 0 - - -;
#X floatatom 273 339 5 0 0 0 - - -;
#X obj 219 159 wrap~;
#X obj 219 137 *~ 4;
#X obj 240 105 * 4;
#X obj 240 76 r oct-PM-\$1;
#X obj 219 50 r~ fundamental-\$1;
#X obj 595 -22 r LeftRight-\$1;
#X obj 416 193 *~ 1;
#X obj 416 237 cos~;
#X obj 462 211 wrap~;
#X obj 462 233 cos~;
#X obj 461 189 *~ 2;
#X obj 437 112 r pmModOct-TopLeft;
#X obj 482 132 r pmModOct-TopRight;
#X obj 610 214 wrap~;
#X obj 610 193 *~ 1;
#X obj 610 237 cos~;
#X obj 656 211 wrap~;
#X obj 656 233 cos~;
#X obj 655 189 *~ 2;
#X obj 631 112 r pmModOct-BottomLeft;
#X obj 676 132 r pmModOct-BottomRight;
#X obj 514 234 r TopBottom-\$1;
#X floatatom 441 336 5 0 0 0 - - -;
#X floatatom 391 337 5 0 0 0 - - -;
#X floatatom 701 190 5 0 0 0 - - -;
#X obj 437 134 * 4;
#X obj 482 154 * 4;
#X obj 631 134 * 4;
#X obj 676 154 * 4;
#X obj 546 284 *~ -1;
#X obj 546 306 +~ 1;
#X obj 531 356 *~;
#X obj 499 356 *~;
#X obj 417 258 *~;
#X obj 463 255 *~;
#X obj 611 258 *~;
#X obj 657 255 *~;
#X obj 529 54 +~ 1;
#X obj 529 32 *~ -1;
#X obj 595 0 lop~ 2;
#X obj 514 256 lop~ 2;
#X obj 654 801 *~;
#X obj 780 406 r~ fundamental-\$0;
#X obj 1109 538 cos~;
#X obj 1109 637 tanh~;
#X obj 1109 617 *~;
#X obj 1125 594 lp2_bess~ 2;
#X obj 999 538 cos~;
#X obj 999 637 tanh~;
#X obj 999 617 *~;
#X obj 1015 594 lp2_bess~ 2;
#X obj 889 538 cos~;
#X obj 890 507 *~ 4;
#X obj 889 637 tanh~;
#X obj 889 617 *~;
#X obj 905 594 lp2_bess~ 2;
#X obj 779 538 cos~;
#X obj 779 637 tanh~;
#X obj 779 617 *~;
#X obj 795 594 lp2_bess~ 2;
#X obj 669 538 cos~;
#X obj 669 637 tanh~;
#X obj 669 617 *~;
#X obj 685 594 lp2_bess~ 2;
#X obj 780 507 *~ 2;
#X obj 1000 507 *~ 8;
#X obj 1110 507 *~ 16;
#X obj 1109 707 *~;
#X obj 1125 684 lp2_bess~ 2;
#X obj 999 707 *~;
#X obj 1015 684 lp2_bess~ 2;
#X obj 889 707 *~;
#X obj 905 684 lp2_bess~ 2;
#X obj 779 707 *~;
#X obj 795 684 lp2_bess~ 2;
#X obj 669 707 *~;
#X obj 685 684 lp2_bess~ 2;
#X obj 685 662 r ring-2-\$0;
#X obj 795 662 r ring-1-\$0;
#X obj 1015 662 r ring+1-\$0;
#X obj 1125 662 r ring+2-\$0;
#X obj 685 572 r ring-2dist-\$0;
#X obj 795 572 r ring-1dist-\$0;
#X obj 1015 572 r ring+1dist-\$0;
#X obj 1125 572 r ring+2dist-\$0;
#X obj 905 662 r ring0-\$0;
#X obj 905 572 r ring0dist-\$0;
#X floatatom 1278 698 5 0 0 0 - - -;
#X floatatom 1260 639 5 0 0 0 - - -;
#X connect 0 0 3 1;
#X connect 1 0 0 1;
#X connect 2 0 20 0;
#X connect 3 0 2 0;
#X connect 4 0 1 0;
#X connect 5 0 4 0;
#X connect 21 0 3 0;
#X connect 22 0 21 0;
#X connect 23 0 22 1;
#X connect 23 0 27 0;
#X connect 24 0 35 0;
#X connect 25 0 5 0;
#X connect 25 0 26 0;
#X connect 28 0 22 0;
#X connect 29 0 28 0;
#X connect 30 0 29 1;
#X connect 31 0 30 0;
#X connect 32 0 29 0;
#X connect 32 0 34 0;
#X connect 32 0 38 0;
#X connect 32 0 42 0;
#X connect 32 0 46 0;
#X connect 33 0 67 0;
#X connect 34 0 24 0;
#X connect 35 0 61 0;
#X connect 36 0 37 0;
#X connect 37 0 62 0;
#X connect 38 0 36 0;
#X connect 39 0 51 0;
#X connect 39 0 53 0;
#X connect 40 0 50 0;
#X connect 40 0 54 0;
#X connect 41 0 43 0;
#X connect 42 0 41 0;
#X connect 43 0 63 0;
#X connect 44 0 45 0;
#X connect 45 0 64 0;
#X connect 46 0 44 0;
#X connect 47 0 55 0;
#X connect 48 0 52 0;
#X connect 48 0 56 0;
#X connect 49 0 68 0;
#X connect 53 0 34 1;
#X connect 54 0 38 1;
#X connect 55 0 42 1;
#X connect 56 0 46 1;
#X connect 57 0 58 0;
#X connect 58 0 59 1;
#X connect 59 0 0 0;
#X connect 60 0 0 0;
#X connect 61 0 60 0;
#X connect 62 0 60 0;
#X connect 63 0 59 0;
#X connect 64 0 59 0;
#X connect 65 0 61 1;
#X connect 65 0 63 1;
#X connect 66 0 65 0;
#X connect 67 0 66 0;
#X connect 67 0 62 1;
#X connect 67 0 64 1;
#X connect 68 0 57 0;
#X connect 68 0 60 1;
#X connect 70 0 94 0;
#X connect 70 0 93 0;
#X connect 70 0 80 0;
#X connect 70 0 92 0;
#X connect 70 0 88 0;
#X connect 71 0 73 0;
#X connect 72 0 95 0;
#X connect 73 0 72 0;
#X connect 74 0 73 1;
#X connect 75 0 77 0;
#X connect 76 0 97 0;
#X connect 77 0 76 0;
#X connect 78 0 77 1;
#X connect 79 0 82 0;
#X connect 80 0 79 0;
#X connect 81 0 99 0;
#X connect 82 0 81 0;
#X connect 83 0 82 1;
#X connect 84 0 86 0;
#X connect 85 0 101 0;
#X connect 86 0 85 0;
#X connect 87 0 86 1;
#X connect 88 0 90 0;
#X connect 89 0 103 0;
#X connect 90 0 89 0;
#X connect 91 0 90 1;
#X connect 92 0 84 0;
#X connect 93 0 75 0;
#X connect 94 0 71 0;
#X connect 95 0 69 1;
#X connect 96 0 95 1;
#X connect 97 0 69 1;
#X connect 98 0 97 1;
#X connect 99 0 69 1;
#X connect 100 0 99 1;
#X connect 101 0 69 1;
#X connect 102 0 101 1;
#X connect 103 0 69 1;
#X connect 104 0 103 1;
#X connect 105 0 104 0;
#X connect 106 0 102 0;
#X connect 107 0 98 0;
#X connect 108 0 96 0;
#X connect 108 0 115 0;
#X connect 109 0 91 0;
#X connect 110 0 87 0;
#X connect 111 0 78 0;
#X connect 112 0 74 0;
#X connect 112 0 116 0;
#X connect 113 0 100 0;
#X connect 114 0 83 0;
