#N canvas 1026 47 1571 1012 10;
#X obj 193 168 list split;
#X obj 193 89 t l l;
#X obj 260 119 list length;
#X obj 260 140 - 1;
#X obj 226 236 line~;
#X obj 193 35 r barkSpec;
#X obj 398 472 throw~ barksum-\$1;
#X floatatom 315 237 5 0 0 0 - - -;
#X obj 226 215 pack f 12;
#X obj 193 60 list split \$2;
#X obj 398 410 *~;
#X text 669 11 This patch demonstrates using ring modulation to alias
a sound down one octave. The ring modulation itself ("osc~" and multiplier)
is easy. (We step it up by a factor of 2 to balance the original better.)
;
#X obj 853 147 cos~;
#X obj 853 266 tanh~;
#X obj 853 246 *~;
#X obj 743 147 cos~;
#X obj 743 266 tanh~;
#X obj 743 246 *~;
#X obj 633 147 cos~;
#X obj 634 116 *~ 4;
#X obj 633 266 tanh~;
#X obj 633 246 *~;
#X obj 523 147 cos~;
#X obj 523 266 tanh~;
#X obj 523 246 *~;
#X obj 413 147 cos~;
#X obj 413 266 tanh~;
#X obj 413 246 *~;
#X obj 524 116 *~ 2;
#X obj 744 116 *~ 8;
#X obj 854 116 *~ 16;
#X obj 853 356 *~;
#X obj 743 356 *~;
#X obj 633 356 *~;
#X obj 523 356 *~;
#X obj 413 356 *~;
#X obj 524 15 r~ fundamental-\$1;
#X obj 525 41 *~ \$2;
#X obj 429 225 line~;
#X obj 429 204 pack f 12;
#X obj 539 225 line~;
#X obj 539 204 pack f 12;
#X obj 649 225 line~;
#X obj 649 204 pack f 12;
#X obj 759 225 line~;
#X obj 759 204 pack f 12;
#X obj 869 335 line~;
#X obj 869 314 pack f 12;
#X obj 429 335 line~;
#X obj 429 314 pack f 12;
#X obj 539 335 line~;
#X obj 539 314 pack f 12;
#X obj 649 335 line~;
#X obj 649 314 pack f 12;
#X obj 759 335 line~;
#X obj 759 314 pack f 12;
#X obj 869 225 line~;
#X obj 869 204 pack f 12;
#X obj 869 291 r bark+2-\$1;
#X obj 869 181 r barkDist+2-\$1;
#X obj 759 291 r bark+1-\$1;
#X obj 759 181 r barkDist+1-\$1;
#X obj 649 291 r bark0-\$1;
#X obj 649 181 r barkDist0-\$1;
#X obj 539 291 r bark-1-\$1;
#X obj 539 181 r barkDist-1-\$1;
#X obj 429 291 r bark-2-\$1;
#X obj 429 181 r barkDist-2-\$1;
#X connect 0 1 8 0;
#X connect 1 0 0 0;
#X connect 1 1 2 0;
#X connect 2 0 3 0;
#X connect 3 0 0 1;
#X connect 4 0 10 0;
#X connect 5 0 9 0;
#X connect 8 0 4 0;
#X connect 9 0 1 0;
#X connect 10 0 6 0;
#X connect 12 0 14 0;
#X connect 13 0 31 0;
#X connect 14 0 13 0;
#X connect 15 0 17 0;
#X connect 16 0 32 0;
#X connect 17 0 16 0;
#X connect 18 0 21 0;
#X connect 19 0 18 0;
#X connect 20 0 33 0;
#X connect 21 0 20 0;
#X connect 22 0 24 0;
#X connect 23 0 34 0;
#X connect 24 0 23 0;
#X connect 25 0 27 0;
#X connect 26 0 35 0;
#X connect 27 0 26 0;
#X connect 28 0 22 0;
#X connect 29 0 15 0;
#X connect 30 0 12 0;
#X connect 31 0 10 1;
#X connect 32 0 10 1;
#X connect 33 0 10 1;
#X connect 34 0 10 1;
#X connect 35 0 10 1;
#X connect 36 0 37 0;
#X connect 37 0 25 0;
#X connect 37 0 28 0;
#X connect 37 0 19 0;
#X connect 37 0 29 0;
#X connect 37 0 30 0;
#X connect 38 0 27 1;
#X connect 39 0 38 0;
#X connect 40 0 24 1;
#X connect 41 0 40 0;
#X connect 42 0 21 1;
#X connect 43 0 42 0;
#X connect 44 0 17 1;
#X connect 45 0 44 0;
#X connect 46 0 31 1;
#X connect 47 0 46 0;
#X connect 48 0 35 1;
#X connect 49 0 48 0;
#X connect 50 0 34 1;
#X connect 51 0 50 0;
#X connect 52 0 33 1;
#X connect 53 0 52 0;
#X connect 54 0 32 1;
#X connect 55 0 54 0;
#X connect 56 0 14 1;
#X connect 57 0 56 0;
#X connect 58 0 47 0;
#X connect 59 0 57 0;
#X connect 60 0 55 0;
#X connect 61 0 45 0;
#X connect 62 0 53 0;
#X connect 63 0 43 0;
#X connect 64 0 51 0;
#X connect 65 0 41 0;
#X connect 66 0 49 0;
#X connect 67 0 39 0;
