#N canvas 1026 47 1571 1012 10;
#X obj 24 252 *~;
#X obj 193 168 list split;
#X obj 193 89 t l l;
#X obj 260 119 list length;
#X obj 260 140 - 1;
#X obj 226 236 line~;
#X obj 193 35 r barkSpec;
#X obj 24 320 throw~ barksum-\$1;
#X floatatom 315 237 5 0 0 0 - - -;
#X obj 226 215 pack f 12;
#X obj 33 210 cos~;
#X obj 28 176 wrap~;
#X obj 24 95 r~ fundamental-\$1;
#X obj 26 149 *~ \$2;
#X obj 193 60 list split \$2;
#X obj 26 127 *~ 2;
#X connect 0 0 7 0;
#X connect 1 1 9 0;
#X connect 2 0 1 0;
#X connect 2 1 3 0;
#X connect 3 0 4 0;
#X connect 4 0 1 1;
#X connect 5 0 0 1;
#X connect 6 0 14 0;
#X connect 9 0 5 0;
#X connect 10 0 0 0;
#X connect 11 0 10 0;
#X connect 12 0 15 0;
#X connect 13 0 11 0;
#X connect 14 0 2 0;
#X connect 15 0 13 0;
