#N canvas 1026 47 1595 939 10;
#X obj 30 16 inlet~;
#X obj 30 267 *~;
#X obj 31 290 outlet~;
#X obj 423 82 * 5.63875;
#X obj 423 98 + 1;
#X obj 423 114 log;
#X obj 423 130 / 1.89292;
#N canvas 1026 47 1571 1012 1- 0;
#X obj 93 24 inlet;
#X obj 94 58 t b f;
#X msg 88 93 1;
#X obj 88 161 outlet;
#X obj 88 129 -;
#X connect 0 0 1 0;
#X connect 1 0 2 0;
#X connect 1 1 4 1;
#X connect 2 0 4 0;
#X connect 4 0 3 0;
#X restore 332 60 pd 1-;
#X text 464 106 3dB equal power curve;
#X obj 332 82 * 5.63875;
#X obj 332 98 + 1;
#X obj 332 114 log;
#X obj 332 130 / 1.89292;
#X obj 423 13 inlet;
#X obj 299 268 *~;
#X obj 299 289 outlet~;
#X obj 45 218 line~;
#X obj 45 197 pack f 12;
#X obj 423 218 line~;
#X obj 423 197 pack f 12;
#X obj 140 16 inlet~;
#X obj 140 267 *~;
#X obj 141 290 outlet~;
#X obj 409 268 *~;
#X obj 409 289 outlet~;
#X connect 0 0 1 0;
#X connect 0 0 14 0;
#X connect 1 0 2 0;
#X connect 3 0 4 0;
#X connect 4 0 5 0;
#X connect 5 0 6 0;
#X connect 6 0 19 0;
#X connect 7 0 9 0;
#X connect 9 0 10 0;
#X connect 10 0 11 0;
#X connect 11 0 12 0;
#X connect 12 0 17 0;
#X connect 13 0 7 0;
#X connect 13 0 3 0;
#X connect 14 0 15 0;
#X connect 16 0 1 1;
#X connect 16 0 21 1;
#X connect 17 0 16 0;
#X connect 18 0 14 1;
#X connect 18 0 23 1;
#X connect 19 0 18 0;
#X connect 20 0 21 0;
#X connect 20 0 23 0;
#X connect 21 0 22 0;
#X connect 23 0 24 0;
