#N canvas 1026 47 1571 1012 10;
#X text 369 26 emulation of a roland supersaw \, based on: "How to
Emulate the Super Saw" by ADAM SZABO http://www.nada.kth.se/utbildning/grukth/exjobb/rapportlistor/2010/rapporter10/szabo_adam_10131.pdf
Implemented in PD by Bart Brouns;
#X text 75 28 amount of detune 0-1;
#X obj 166 96 - 0.6;
#X obj 166 152 + 0.12;
#X obj 256 152 + 0.4;
#X obj 96 258 t b f;
#X obj 76 288 *;
#X obj 196 208 t b f;
#X obj 166 238 *;
#X obj 196 258 t b f;
#X obj 166 288 *;
#X obj 96 236 < 0.6;
#X obj 286 258 t b f;
#X obj 256 288 *;
#X obj 196 186 >= 0.6;
#X obj 196 236 <= 0.95;
#X obj 286 236 > 0.95;
#X obj 76 120 * 0.2;
#X obj 256 120 * 12;
#X obj 166 120 * 0.8;
#X obj 76 352 +;
#X obj 166 314 t b f;
#X obj 76 374 +;
#X obj 256 314 t b f;
#X obj 256 96 - 0.95;
#X obj 76 453 t b f;
#X obj 76 535 *;
#X obj 176 453 t b f;
#X obj 176 535 *;
#X obj 276 453 t b f;
#X obj 276 535 *;
#X obj 476 453 t b f;
#X obj 476 535 *;
#X obj 576 453 t b f;
#X obj 576 535 *;
#X obj 676 453 t b f;
#X obj 676 535 *;
#X obj 76 44 inlet detune;
#X obj -54 453 inlet pitch;
#X obj 817 357 inlet mix;
#X text -55 413 pitch in Hz;
#X text 816 337 mix between saw and supersaw;
#X obj 817 579 * -0.55366;
#X obj 817 601 + 0.99785;
#X obj 817 645 line~;
#X obj 346 739 *~;
#X obj 987 570 * -0.73764;
#X obj 987 602 +;
#X obj 1067 548 * 1.2841;
#X obj 1067 570 t b f;
#X obj 987 645 line~;
#X obj 76 739 *~;
#X obj 76 803 outlet~ superSaw;
#X floatatom 817 409 5 0 0 0 - - -;
#X obj 76 411 * -0.110023;
#X obj 176 411 * -0.0628844;
#X obj 276 411 * -0.0195236;
#X obj 476 411 * 0.0199122;
#X obj 576 411 * 0.0621654;
#X obj 676 411 * 0.107452;
#X obj 76 433 + 1;
#X obj 176 433 + 1;
#X obj 276 433 + 1;
#X obj 476 433 + 1;
#X obj 576 433 + 1;
#X obj 676 433 + 1;
#X obj 76 579 bl-saw.mmb~ \$0;
#X obj 176 579 bl-saw.mmb~ \$0;
#X obj 276 579 bl-saw.mmb~ \$0;
#X obj 476 579 bl-saw.mmb~ \$0;
#X obj 576 579 bl-saw.mmb~ \$0;
#X obj 676 579 bl-saw.mmb~ \$0;
#X obj 376 579 bl-saw2.mmb~ \$0;
#X obj 987 548 pow 2;
#X obj 1298 502 inlet~ fundamental;
#X obj 817 624 pack f 12;
#X obj 987 624 pack f 12;
#X connect 2 0 19 0;
#X connect 3 0 8 0;
#X connect 4 0 13 0;
#X connect 5 0 6 0;
#X connect 5 1 6 1;
#X connect 6 0 20 0;
#X connect 7 0 8 0;
#X connect 7 1 8 1;
#X connect 8 0 10 0;
#X connect 9 0 10 0;
#X connect 9 1 10 1;
#X connect 10 0 21 0;
#X connect 11 0 5 0;
#X connect 12 0 13 0;
#X connect 12 1 13 1;
#X connect 13 0 23 0;
#X connect 14 0 7 0;
#X connect 15 0 9 0;
#X connect 16 0 12 0;
#X connect 17 0 6 0;
#X connect 18 0 4 0;
#X connect 19 0 3 0;
#X connect 20 0 22 0;
#X connect 21 0 20 0;
#X connect 21 1 20 1;
#X connect 22 0 54 0;
#X connect 22 0 55 0;
#X connect 22 0 56 0;
#X connect 22 0 57 0;
#X connect 22 0 58 0;
#X connect 22 0 59 0;
#X connect 23 0 22 0;
#X connect 23 1 22 1;
#X connect 24 0 18 0;
#X connect 25 0 26 0;
#X connect 25 1 26 1;
#X connect 26 0 66 0;
#X connect 27 0 28 0;
#X connect 27 1 28 1;
#X connect 28 0 67 0;
#X connect 29 0 30 0;
#X connect 29 1 30 1;
#X connect 30 0 68 0;
#X connect 31 0 32 0;
#X connect 31 1 32 1;
#X connect 32 0 69 0;
#X connect 33 0 34 0;
#X connect 33 1 34 1;
#X connect 34 0 70 0;
#X connect 35 0 36 0;
#X connect 35 1 36 1;
#X connect 36 0 71 0;
#X connect 37 0 2 0;
#X connect 37 0 17 0;
#X connect 37 0 11 0;
#X connect 37 0 14 0;
#X connect 37 0 15 0;
#X connect 37 0 16 0;
#X connect 37 0 24 0;
#X connect 38 0 26 0;
#X connect 38 0 28 0;
#X connect 38 0 30 0;
#X connect 38 0 32 0;
#X connect 38 0 34 0;
#X connect 38 0 36 0;
#X connect 39 0 42 0;
#X connect 39 0 48 0;
#X connect 39 0 53 0;
#X connect 39 0 73 0;
#X connect 42 0 43 0;
#X connect 43 0 75 0;
#X connect 44 0 45 1;
#X connect 45 0 52 0;
#X connect 46 0 47 0;
#X connect 47 0 76 0;
#X connect 48 0 49 0;
#X connect 49 0 47 0;
#X connect 49 1 47 1;
#X connect 50 0 51 1;
#X connect 51 0 52 0;
#X connect 54 0 60 0;
#X connect 55 0 61 0;
#X connect 56 0 62 0;
#X connect 57 0 63 0;
#X connect 58 0 64 0;
#X connect 59 0 65 0;
#X connect 60 0 25 0;
#X connect 61 0 27 0;
#X connect 62 0 29 0;
#X connect 63 0 31 0;
#X connect 64 0 33 0;
#X connect 65 0 35 0;
#X connect 66 0 51 0;
#X connect 67 0 51 0;
#X connect 68 0 51 0;
#X connect 69 0 51 0;
#X connect 70 0 51 0;
#X connect 71 0 51 0;
#X connect 72 0 45 0;
#X connect 73 0 46 0;
#X connect 74 0 72 0;
#X connect 75 0 44 0;
#X connect 76 0 50 0;
