#N canvas 1026 47 1571 1012 10;
#X obj 315 -327 *;
#X obj 373 -307 *;
#X obj 433 -287 *;
#X obj 494 -267 *;
#X obj 554 -247 *;
#X obj 614 -227 *;
#X obj 254 -347 *;
#X obj 726 -393 t b f;
#X obj 734 -187 *;
#X obj 794 -167 *;
#X obj 854 -147 *;
#X obj 914 -127 *;
#X obj 974 -107 *;
#X obj 1034 -87 *;
#X obj 674 -207 *;
#X obj 1074 -87 *;
#X obj 726 -429 inlet mult;
#X text 412 -27 formant pitch;
#X obj 511 -28 pack 1 2 3 4 5 6 7 8 9 10 11 12 13 14 15 16;
#X obj 513 -5 outlet freqs;
#X obj 153 -413 inlet Base;
#X connect 0 0 1 0;
#X connect 0 0 18 2;
#X connect 1 0 2 0;
#X connect 1 0 18 3;
#X connect 2 0 3 0;
#X connect 2 0 18 4;
#X connect 3 0 4 0;
#X connect 3 0 18 5;
#X connect 4 0 5 0;
#X connect 4 0 18 6;
#X connect 5 0 14 0;
#X connect 5 0 18 7;
#X connect 6 0 0 0;
#X connect 6 0 18 1;
#X connect 7 0 6 0;
#X connect 7 0 0 0;
#X connect 7 0 1 0;
#X connect 7 0 2 0;
#X connect 7 0 3 0;
#X connect 7 0 4 0;
#X connect 7 0 5 0;
#X connect 7 0 14 0;
#X connect 7 0 8 0;
#X connect 7 0 9 0;
#X connect 7 0 10 0;
#X connect 7 0 11 0;
#X connect 7 0 12 0;
#X connect 7 0 13 0;
#X connect 7 0 15 0;
#X connect 7 0 18 0;
#X connect 7 1 6 1;
#X connect 7 1 0 1;
#X connect 7 1 1 1;
#X connect 7 1 2 1;
#X connect 7 1 3 1;
#X connect 7 1 4 1;
#X connect 7 1 5 1;
#X connect 7 1 14 1;
#X connect 7 1 8 1;
#X connect 7 1 9 1;
#X connect 7 1 10 1;
#X connect 7 1 11 1;
#X connect 7 1 12 1;
#X connect 7 1 13 1;
#X connect 7 1 15 1;
#X connect 8 0 9 0;
#X connect 8 0 18 9;
#X connect 9 0 10 0;
#X connect 9 0 18 10;
#X connect 10 0 11 0;
#X connect 10 0 18 11;
#X connect 11 0 12 0;
#X connect 11 0 18 12;
#X connect 12 0 13 0;
#X connect 12 0 18 13;
#X connect 13 0 15 0;
#X connect 13 0 18 14;
#X connect 14 0 8 0;
#X connect 14 0 18 8;
#X connect 15 0 18 15;
#X connect 16 0 7 0;
#X connect 18 0 19 0;
#X connect 20 0 6 0;
#X connect 20 0 18 0;
