#N canvas 1026 47 1571 1012 10;
#X obj 156 517 cos~;
#X obj 156 543 *~;
#X obj 157 414 wrap~;
#X obj 156 491 -~ 0.25;
#X obj 156 569 *~;
#X obj 199 529 samphold~;
#X obj 156 465 *~ 0.5;
#X obj 258 465 wrap~;
#X obj 157 362 *~;
#X obj 445 453 *~;
#X obj 445 427 clip~ 0 1;
#X obj 156 635 outlet~;
#X obj 504 375 *~;
#X obj 157 388 clip~ 0 1;
#X text 521 60 b;
#X text 117 148 M + NT;
#X text 490 404 damping;
#X obj 445 479 *~;
#X text 398 500 quadric decay (this is a somewhat arbitrary choice)
;
#X obj 172 145 +~;
#X obj 173 337 /~;
#X text 120 361 [f1];
#X text 101 669 The stretched phasor [f1] needs to run at f1 = 1/T
all the time. It is derived from a phasor at f0 = 1/(NT+M) so the stretch/multiplication
factor x needs to be calculated according to the following:;
#X text 101 731 f1 = x * f0 ==> 1/T = x * 1/(M + NT) ==> x = (M + NT)/T
;
#X text 56 250 sec => Hz;
#X text 298 81 T (sec);
#X text 126 70 M (sec);
#X text 51 283 f0 = 1/(M+NT);
#X text 43 336 x = (M + NT)/T;
#X obj 189 121 *~ 1;
#X text 666 627 changes of N should be [samphold~]ed but this would
generate a DSP loop in Pd.;
#X obj 445 375 sig~ 1;
#X obj 445 401 -~;
#X text 199 554 This gives artifacts for certain combinations of M
and T \, if b != 0 \, duh.;
#X obj 60 76 expr 1/$f1;
#X obj 235 82 expr 1/$f1;
#X obj 233 56 inlet reso;
#X floatatom 562 117 5 0 0 0 - - -;
#X obj 156 599 *~;
#X obj 870 136 inlet~ amp;
#X obj 327 279 wrap~;
#X obj 327 257 *~ 4;
#X obj 348 225 * 4;
#X obj 327 181 r~ fundamental-\$1;
#X obj 521 84 r \$1-b;
#X obj 60 19 r \$1-pitch;
#X obj 348 203 r oct-vosim-\$1;
#X floatatom 396 123 5 0 0 0 - - -;
#X obj 366 86 r \$1-N;
#X obj 157 1 r oct-vosim-\$1;
#X obj 60 51 *;
#X obj 157 23 t b f;
#X obj 1083 156 r vosimRmsRing-\$1;
#X obj 1006 404 +~;
#X obj 1084 206 line~;
#X obj 1084 185 pack f 12;
#X obj 1022 240 *~ -1;
#X obj 1022 262 +~ 1;
#X obj 1006 292 *~;
#X obj 1069 350 *~;
#X obj 651 241 line~;
#X obj 651 220 pack f 12;
#X obj 651 64 r vosimPhase-\$1;
#X obj 327 301 wrap~;
#X obj 651 198 * \$2;
#X obj 651 176 *;
#X obj 749 128 t b f;
#X obj 749 64 r VocEnv-\$1;
#X obj 749 108 tanh;
#X obj 749 86 * 30;
#X floatatom 1003 435 5 0 0 0 - - -;
#X obj 1295 438 snapshot~;
#X obj 1299 479 vsl 15 128 0 1 0 0 empty empty empty 0 -9 0 10 -262144
-1 -1 12700 1;
#X obj 1297 372 metro 10;
#X obj 1299 341 bng 15 250 50 0 empty empty empty 17 7 0 10 -262144
-1 -1;
#X floatatom 1045 118 5 0 0 0 - - -;
#X obj 1069 321 tanh~;
#X obj 1069 298 *~ 32;
#X obj 1084 228 pow~ 4;
#X floatatom 1211 135 5 0 0 0 - - -;
#X obj 1069 373 *~ 1;
#X obj 1210 169 sig~ 3;
#X connect 0 0 1 0;
#X connect 0 0 1 1;
#X connect 1 0 4 0;
#X connect 2 0 6 0;
#X connect 2 0 7 0;
#X connect 3 0 0 0;
#X connect 4 0 38 0;
#X connect 5 0 4 1;
#X connect 6 0 3 0;
#X connect 7 0 5 1;
#X connect 8 0 13 0;
#X connect 9 0 17 0;
#X connect 9 0 17 1;
#X connect 10 0 9 0;
#X connect 10 0 9 1;
#X connect 12 0 32 1;
#X connect 13 0 2 0;
#X connect 17 0 5 0;
#X connect 19 0 20 0;
#X connect 20 0 8 1;
#X connect 29 0 19 1;
#X connect 31 0 32 0;
#X connect 32 0 10 0;
#X connect 34 0 19 0;
#X connect 35 0 29 0;
#X connect 35 0 20 1;
#X connect 36 0 35 0;
#X connect 38 0 11 0;
#X connect 39 0 58 0;
#X connect 39 0 77 0;
#X connect 40 0 63 0;
#X connect 41 0 40 0;
#X connect 42 0 41 1;
#X connect 43 0 41 0;
#X connect 44 0 12 1;
#X connect 44 0 37 0;
#X connect 45 0 50 0;
#X connect 46 0 42 0;
#X connect 48 0 13 2;
#X connect 48 0 29 1;
#X connect 48 0 47 0;
#X connect 49 0 51 0;
#X connect 50 0 34 0;
#X connect 51 0 50 0;
#X connect 51 1 50 1;
#X connect 52 0 55 0;
#X connect 52 0 70 0;
#X connect 53 0 38 1;
#X connect 54 0 56 0;
#X connect 54 0 78 0;
#X connect 55 0 54 0;
#X connect 56 0 57 0;
#X connect 57 0 58 1;
#X connect 58 0 53 0;
#X connect 59 0 80 0;
#X connect 60 0 63 0;
#X connect 61 0 60 0;
#X connect 62 0 65 0;
#X connect 63 0 8 0;
#X connect 63 0 12 0;
#X connect 64 0 61 0;
#X connect 65 0 64 0;
#X connect 66 0 65 0;
#X connect 66 1 65 1;
#X connect 67 0 69 0;
#X connect 68 0 66 0;
#X connect 69 0 68 0;
#X connect 71 0 72 0;
#X connect 73 0 71 0;
#X connect 74 0 73 0;
#X connect 75 0 55 0;
#X connect 76 0 59 0;
#X connect 77 0 76 0;
#X connect 78 0 59 1;
#X connect 78 0 71 0;
#X connect 79 0 81 0;
#X connect 80 0 53 1;
#X connect 81 0 78 1;
