#N canvas 1026 47 1571 1012 10;
#X obj 13 120 inlet~;
#X obj 57 842 outlet~;
#X obj 8 271 pois;
#X obj 58 329 t b f;
#X obj 58 349 random 10000;
#X obj 58 369 / 10000;
#X obj 58 444 * 1;
#X obj 58 465 + 0;
#X obj 84 444 t b f;
#X obj 84 465 -;
#X obj 83 409 log;
#X obj 121 449 log;
#X obj 155 467 r \$1-sdep;
#X obj 33 233 r \$1-pois;
#X obj 58 252 r \$1-min;
#X obj 83 390 r \$1-smin;
#X obj 121 430 r \$1-smax;
#X obj 58 525 phasor~;
#X obj 58 565 abs~;
#X obj 58 625 *~;
#X obj 155 487 expr pow(2 \, $f1/1200);
#X obj 320 349 t b f;
#X obj 320 370 random 10000;
#X obj 320 526 line~;
#X obj 320 390 / 10000;
#X obj 320 465 * 1;
#X obj 320 486 + 0;
#X obj 346 465 t b f;
#X obj 346 486 -;
#X obj 345 430 log;
#X obj 383 470 log;
#X obj 295 253 r \$1-pois;
#X obj 320 272 r \$1-min;
#X obj 320 546 phasor~;
#X obj 320 636 *~;
#X obj 413 505 expr pow(2 \, $f1/1200);
#X obj 320 596 sin~;
#X obj 320 616 +~ 1;
#X obj 58 545 -~ 0.5;
#X obj 155 507 expr 2000*($f1-1)/($f1+1);
#X obj 413 525 expr 318.309886*($f1-1)/($f1+1);
#X obj 58 485 exp;
#X obj 58 505 line~;
#X obj 155 548 /;
#X obj 155 528 t b f;
#X obj 155 569 line~;
#X obj 320 506 exp;
#X obj 413 569 /;
#X obj 413 549 t b f;
#X obj 413 590 line~;
#X obj 57 682 +~;
#X obj 345 411 r \$1-fmin;
#X obj 383 451 r \$1-fmax;
#X obj 413 485 r \$1-fdep;
#X obj 624 341 t b f;
#X obj 624 361 random 10000;
#X obj 624 381 / 10000;
#X obj 624 456 * 1;
#X obj 624 477 + 0;
#X obj 650 456 t b f;
#X obj 650 477 -;
#X obj 649 421 log;
#X obj 687 461 log;
#X obj 721 479 r \$1-sdep;
#X obj 599 245 r \$1-pois;
#X obj 624 264 r \$1-min;
#X obj 649 402 r \$1-smin;
#X obj 687 442 r \$1-smax;
#X obj 624 537 phasor~;
#X obj 624 577 abs~;
#X obj 624 627 *~;
#X obj 721 499 expr pow(2 \, $f1/1200);
#X obj 886 361 t b f;
#X obj 886 382 random 10000;
#X obj 886 538 line~;
#X obj 886 402 / 10000;
#X obj 886 477 * 1;
#X obj 886 498 + 0;
#X obj 912 477 t b f;
#X obj 912 498 -;
#X obj 911 442 log;
#X obj 949 482 log;
#X obj 861 265 r \$1-pois;
#X obj 886 284 r \$1-min;
#X obj 886 558 phasor~;
#X obj 886 648 *~;
#X obj 979 517 expr pow(2 \, $f1/1200);
#X obj 886 578 sin~;
#X obj 886 628 +~ 1;
#X obj 624 557 -~ 0.5;
#X obj 721 519 expr 2000*($f1-1)/($f1+1);
#X obj 979 537 expr 318.309886*($f1-1)/($f1+1);
#X obj 624 497 exp;
#X obj 624 517 line~;
#X obj 721 560 /;
#X obj 721 540 t b f;
#X obj 721 581 line~;
#X obj 886 518 exp;
#X obj 979 581 /;
#X obj 979 561 t b f;
#X obj 979 602 line~;
#X obj 623 674 +~;
#X obj 911 423 r \$1-fmin;
#X obj 949 463 r \$1-fmax;
#X obj 979 497 r \$1-fdep;
#X obj 1188 362 t b f;
#X obj 1188 382 random 10000;
#X obj 1188 402 / 10000;
#X obj 1188 477 * 1;
#X obj 1188 498 + 0;
#X obj 1214 477 t b f;
#X obj 1214 498 -;
#X obj 1213 442 log;
#X obj 1251 482 log;
#X obj 1285 500 r \$1-sdep;
#X obj 1163 266 r \$1-pois;
#X obj 1188 285 r \$1-min;
#X obj 1213 423 r \$1-smin;
#X obj 1251 463 r \$1-smax;
#X obj 1188 558 phasor~;
#X obj 1188 598 abs~;
#X obj 1188 648 *~;
#X obj 1285 520 expr pow(2 \, $f1/1200);
#X obj 1450 382 t b f;
#X obj 1450 403 random 10000;
#X obj 1450 559 line~;
#X obj 1450 423 / 10000;
#X obj 1450 498 * 1;
#X obj 1450 519 + 0;
#X obj 1476 498 t b f;
#X obj 1476 519 -;
#X obj 1475 463 log;
#X obj 1513 503 log;
#X obj 1425 286 r \$1-pois;
#X obj 1450 305 r \$1-min;
#X obj 1450 579 phasor~;
#X obj 1450 669 *~;
#X obj 1543 538 expr pow(2 \, $f1/1200);
#X obj 1450 599 sin~;
#X obj 1450 649 +~ 1;
#X obj 1188 578 -~ 0.5;
#X obj 1285 540 expr 2000*($f1-1)/($f1+1);
#X obj 1543 558 expr 318.309886*($f1-1)/($f1+1);
#X obj 1188 518 exp;
#X obj 1188 538 line~;
#X obj 1285 581 /;
#X obj 1285 561 t b f;
#X obj 1285 602 line~;
#X obj 1450 539 exp;
#X obj 1543 602 /;
#X obj 1543 582 t b f;
#X obj 1543 623 line~;
#X obj 1187 695 +~;
#X obj 1475 444 r \$1-fmin;
#X obj 1513 484 r \$1-fmax;
#X obj 1543 518 r \$1-fdep;
#X obj 57 751 +~;
#X obj 8 213 r \$1-en;
#X obj 270 233 r \$1-en;
#X obj 574 225 r \$1-en;
#X obj 836 245 r \$1-en;
#X obj 1138 246 r \$1-en;
#X obj 1400 266 r \$1-en;
#X obj 623 694 +~ 7;
#X obj 57 710 +~ 3;
#X obj 1187 715 +~ 10;
#X obj 57 792 +~;
#X text 300 19 Classic "string ensemble" style chorus \, mono in/out
\, dual (fast/slow) LFO modulation \, inspired primarily by the Roland
RS202 (independent LFOs rather than the more common Solina style chorus
which uses 3 phase modulation). Modulation depth (adjustable in cents)
is held constant while LFO speed is varied slowly.;
#X obj 270 291 pois;
#X obj 574 283 pois;
#X obj 836 303 pois;
#X obj 1138 304 pois;
#X obj 1400 324 pois;
#X text 716 27 Scott Nordlund \, 2011;
#X text 716 45 Contact: limina@live.com.;
#X text 717 64 Last revised: 08-03-2011.;
#X obj 274 150 s \$1-en;
#X obj 344 150 s \$1-pois;
#X obj 414 150 s \$1-min;
#X obj 624 151 s \$1-sdep;
#X obj 344 129 inlet pois;
#X obj 414 129 inlet min;
#X obj 624 129 inlet sdep;
#X obj 274 129 inlet en;
#X obj 554 129 inlet smax;
#X obj 554 151 s \$1-smax;
#X obj 484 129 inlet smin;
#X obj 484 151 s \$1-smin;
#X obj 694 129 inlet fmin;
#X obj 694 151 s \$1-fmin;
#X obj 764 129 inlet fmax;
#X obj 764 151 s \$1-fmax;
#X obj 834 129 inlet fdep;
#X obj 834 151 s \$1-fdep;
#X text 271 100 Slow modulator is triangle wave \, fast is sine. Depth
is in cents.;
#X obj 155 591 lop~ 1;
#X obj 413 612 lop~ 1;
#X obj 721 603 lop~ 1;
#X obj 979 624 lop~ 1;
#X obj 1285 624 lop~ 1;
#X obj 1543 645 lop~ 1;
#X obj 13 140 delwrite~ \$0-d-\$1 100;
#X obj 57 731 vd~ \$0-d-\$1;
#X obj 623 714 vd~ \$0-d-\$1;
#X obj 1187 736 vd~ \$0-d-\$1;
#X obj 115 877 tanh~;
#X obj 115 857 *~ 2;
#X obj 115 899 *~ 0.3;
#X obj 115 813 *~;
#X obj 975 156 inlet~ FB;
#X obj 115 835 hip~ 200;
#X connect 0 0 201 0;
#X connect 2 1 3 0;
#X connect 3 0 4 0;
#X connect 3 1 42 1;
#X connect 3 1 45 1;
#X connect 4 0 5 0;
#X connect 5 0 6 0;
#X connect 6 0 7 0;
#X connect 7 0 41 0;
#X connect 8 0 9 0;
#X connect 8 1 9 1;
#X connect 9 0 6 1;
#X connect 10 0 8 0;
#X connect 10 0 7 1;
#X connect 11 0 9 0;
#X connect 12 0 20 0;
#X connect 13 0 2 1;
#X connect 14 0 2 2;
#X connect 15 0 10 0;
#X connect 16 0 11 0;
#X connect 17 0 38 0;
#X connect 18 0 19 0;
#X connect 19 0 50 0;
#X connect 20 0 39 0;
#X connect 21 0 22 0;
#X connect 21 1 23 1;
#X connect 21 1 49 1;
#X connect 22 0 24 0;
#X connect 23 0 33 0;
#X connect 24 0 25 0;
#X connect 25 0 26 0;
#X connect 26 0 46 0;
#X connect 27 0 28 0;
#X connect 27 1 28 1;
#X connect 28 0 25 1;
#X connect 29 0 27 0;
#X connect 29 0 26 1;
#X connect 30 0 28 0;
#X connect 31 0 168 1;
#X connect 32 0 168 2;
#X connect 33 0 36 0;
#X connect 34 0 50 1;
#X connect 35 0 40 0;
#X connect 36 0 37 0;
#X connect 37 0 34 0;
#X connect 38 0 18 0;
#X connect 39 0 43 0;
#X connect 40 0 47 0;
#X connect 41 0 42 0;
#X connect 41 0 44 0;
#X connect 42 0 17 0;
#X connect 43 0 45 0;
#X connect 44 0 43 0;
#X connect 44 1 43 1;
#X connect 45 0 195 0;
#X connect 46 0 23 0;
#X connect 46 0 48 0;
#X connect 47 0 49 0;
#X connect 48 0 47 0;
#X connect 48 1 47 1;
#X connect 49 0 196 0;
#X connect 50 0 164 0;
#X connect 51 0 29 0;
#X connect 52 0 30 0;
#X connect 53 0 35 0;
#X connect 54 0 55 0;
#X connect 54 1 93 1;
#X connect 54 1 96 1;
#X connect 55 0 56 0;
#X connect 56 0 57 0;
#X connect 57 0 58 0;
#X connect 58 0 92 0;
#X connect 59 0 60 0;
#X connect 59 1 60 1;
#X connect 60 0 57 1;
#X connect 61 0 59 0;
#X connect 61 0 58 1;
#X connect 62 0 60 0;
#X connect 63 0 71 0;
#X connect 64 0 169 1;
#X connect 65 0 169 2;
#X connect 66 0 61 0;
#X connect 67 0 62 0;
#X connect 68 0 89 0;
#X connect 69 0 70 0;
#X connect 70 0 101 0;
#X connect 71 0 90 0;
#X connect 72 0 73 0;
#X connect 72 1 74 1;
#X connect 72 1 100 1;
#X connect 73 0 75 0;
#X connect 74 0 84 0;
#X connect 75 0 76 0;
#X connect 76 0 77 0;
#X connect 77 0 97 0;
#X connect 78 0 79 0;
#X connect 78 1 79 1;
#X connect 79 0 76 1;
#X connect 80 0 78 0;
#X connect 80 0 77 1;
#X connect 81 0 79 0;
#X connect 82 0 170 1;
#X connect 83 0 170 2;
#X connect 84 0 87 0;
#X connect 85 0 101 1;
#X connect 86 0 91 0;
#X connect 87 0 88 0;
#X connect 88 0 85 0;
#X connect 89 0 69 0;
#X connect 90 0 94 0;
#X connect 91 0 98 0;
#X connect 92 0 93 0;
#X connect 92 0 95 0;
#X connect 93 0 68 0;
#X connect 94 0 96 0;
#X connect 95 0 94 0;
#X connect 95 1 94 1;
#X connect 96 0 197 0;
#X connect 97 0 74 0;
#X connect 97 0 99 0;
#X connect 98 0 100 0;
#X connect 99 0 98 0;
#X connect 99 1 98 1;
#X connect 100 0 198 0;
#X connect 101 0 163 0;
#X connect 102 0 80 0;
#X connect 103 0 81 0;
#X connect 104 0 86 0;
#X connect 105 0 106 0;
#X connect 105 1 144 1;
#X connect 105 1 147 1;
#X connect 106 0 107 0;
#X connect 107 0 108 0;
#X connect 108 0 109 0;
#X connect 109 0 143 0;
#X connect 110 0 111 0;
#X connect 110 1 111 1;
#X connect 111 0 108 1;
#X connect 112 0 110 0;
#X connect 112 0 109 1;
#X connect 113 0 111 0;
#X connect 114 0 122 0;
#X connect 115 0 171 1;
#X connect 116 0 171 2;
#X connect 117 0 112 0;
#X connect 118 0 113 0;
#X connect 119 0 140 0;
#X connect 120 0 121 0;
#X connect 121 0 152 0;
#X connect 122 0 141 0;
#X connect 123 0 124 0;
#X connect 123 1 125 1;
#X connect 123 1 151 1;
#X connect 124 0 126 0;
#X connect 125 0 135 0;
#X connect 126 0 127 0;
#X connect 127 0 128 0;
#X connect 128 0 148 0;
#X connect 129 0 130 0;
#X connect 129 1 130 1;
#X connect 130 0 127 1;
#X connect 131 0 129 0;
#X connect 131 0 128 1;
#X connect 132 0 130 0;
#X connect 133 0 172 1;
#X connect 134 0 172 2;
#X connect 135 0 138 0;
#X connect 136 0 152 1;
#X connect 137 0 142 0;
#X connect 138 0 139 0;
#X connect 139 0 136 0;
#X connect 140 0 120 0;
#X connect 141 0 145 0;
#X connect 142 0 149 0;
#X connect 143 0 144 0;
#X connect 143 0 146 0;
#X connect 144 0 119 0;
#X connect 145 0 147 0;
#X connect 146 0 145 0;
#X connect 146 1 145 1;
#X connect 147 0 199 0;
#X connect 148 0 125 0;
#X connect 148 0 150 0;
#X connect 149 0 151 0;
#X connect 150 0 149 0;
#X connect 150 1 149 1;
#X connect 151 0 200 0;
#X connect 152 0 165 0;
#X connect 153 0 131 0;
#X connect 154 0 132 0;
#X connect 155 0 137 0;
#X connect 156 0 166 0;
#X connect 157 0 2 0;
#X connect 158 0 168 0;
#X connect 159 0 169 0;
#X connect 160 0 170 0;
#X connect 161 0 171 0;
#X connect 162 0 172 0;
#X connect 163 0 203 0;
#X connect 164 0 202 0;
#X connect 165 0 204 0;
#X connect 166 0 1 0;
#X connect 166 0 208 0;
#X connect 168 1 21 0;
#X connect 169 1 54 0;
#X connect 170 1 72 0;
#X connect 171 1 105 0;
#X connect 172 1 123 0;
#X connect 180 0 177 0;
#X connect 181 0 178 0;
#X connect 182 0 179 0;
#X connect 183 0 176 0;
#X connect 184 0 185 0;
#X connect 186 0 187 0;
#X connect 188 0 189 0;
#X connect 190 0 191 0;
#X connect 192 0 193 0;
#X connect 195 0 19 1;
#X connect 196 0 34 1;
#X connect 197 0 70 1;
#X connect 198 0 85 1;
#X connect 199 0 121 1;
#X connect 200 0 136 1;
#X connect 202 0 156 0;
#X connect 203 0 156 1;
#X connect 204 0 166 1;
#X connect 205 0 207 0;
#X connect 206 0 205 0;
#X connect 207 0 201 0;
#X connect 208 0 210 0;
#X connect 209 0 208 1;
#X connect 210 0 206 0;
