#N canvas 1026 47 1571 1012 10;
#X obj 47 199 blosc~ comparator;
#X obj 47 169 -~;
#X obj 47 120 *~ 2;
#X obj 47 145 -~ 1;
#X obj 48 256 outlet~;
#X text 191 68 pulse width;
#X obj 192 92 inlet~ PW;
#X obj 286 90 inlet~ SpecComp;
#X obj 48 228 pvcompand~;
#X text 296 67 brightness;
#X obj 46 92 inlet~ fundamental;
#X connect 0 0 8 0;
#X connect 1 0 0 0;
#X connect 2 0 3 0;
#X connect 3 0 1 0;
#X connect 6 0 1 1;
#X connect 7 0 8 1;
#X connect 8 0 4 0;
#X connect 10 0 2 0;
