#N canvas 1026 47 1571 1012 10;
#X obj 733 369 *;
#X obj 463 248 * -1;
#X obj 463 270 + 1;
#X obj 463 391 *;
#X obj 463 465 +;
#X obj 463 413 t b f;
#X obj 579 913 s \$1-\$2;
#X obj 463 190 r LeftRight-\$2;
#X obj 396 46 r \$1-TopLeft;
#X obj 631 50 r \$1-TopRight;
#X obj 898 457 *;
#X obj 818 660 *;
#X obj 818 714 +;
#X obj 818 682 t b f;
#X obj 818 15 r \$1-BottomLeft;
#X obj 898 44 r \$1-BottomRight;
#X obj 579 632 r TopBottom-\$2;
#X obj 579 809 *;
#X obj 634 678 * -1;
#X obj 634 701 + 1;
#X obj 634 771 *;
#X obj 634 725 t b f;
#X obj 579 670 t b f;
#X obj 579 877 +;
#X obj 634 793 t b f;
#X text 489 467 top;
#X text 846 710 bottom;
#X obj 733 300 t b f b f;
#X obj 463 292 t b f b f;
#X connect 0 0 4 0;
#X connect 1 0 2 0;
#X connect 2 0 28 0;
#X connect 3 0 5 0;
#X connect 4 0 17 0;
#X connect 5 0 4 0;
#X connect 5 1 4 1;
#X connect 7 0 1 0;
#X connect 7 0 27 0;
#X connect 8 0 3 0;
#X connect 9 0 0 0;
#X connect 10 0 12 0;
#X connect 11 0 13 0;
#X connect 12 0 20 0;
#X connect 13 0 12 0;
#X connect 13 1 12 1;
#X connect 14 0 11 0;
#X connect 15 0 10 0;
#X connect 16 0 22 0;
#X connect 16 0 18 0;
#X connect 17 0 23 0;
#X connect 18 0 19 0;
#X connect 19 0 21 0;
#X connect 20 0 24 0;
#X connect 21 0 20 0;
#X connect 21 1 20 1;
#X connect 22 0 17 0;
#X connect 22 1 17 1;
#X connect 23 0 6 0;
#X connect 24 0 23 0;
#X connect 24 1 23 1;
#X connect 27 0 0 0;
#X connect 27 1 0 1;
#X connect 27 2 10 0;
#X connect 27 3 10 1;
#X connect 28 0 3 0;
#X connect 28 1 3 1;
#X connect 28 2 11 0;
#X connect 28 3 11 1;
