#N canvas 1026 47 1571 1012 10;
#X floatatom 175 29 0 0 0 0 - - -;
#X floatatom 192 64 0 0 0 0 - - -;
#X floatatom 209 126 0 0 0 0 - - -;
#X obj 158 274 fofsynth~;
#X text 221 269 fofsynth~ is the same as fof~;
#X text 206 29 formant frequency;
#X text 222 63 raise time in percent;
#X text 240 127 fall time in % of period;
#X text 283 -10 THIS IS STILL NOT REALLY FINISHED;
#X obj 92 -207 inlet formant;
#X obj 159 372 outlet~;
#X obj 502 -200 inlet~ vol;
#X obj 114 148 sig~;
#X obj 212 -204 r fofRaise-\$1;
#X obj 300 -203 r fofFall-\$1;
#X obj 31 70 noise~;
#X obj 32 199 *~ 1;
#X obj 86 224 *~;
#X obj 86 246 +~;
#X obj 53 116 r fofPitchRand-\$1;
#X obj 31 92 lop~ 0.3;
#X obj 92 -137 line;
#X obj 92 -108 t b f;
#X obj 27 -209 r pitch-\$2;
#X obj 92 -86 *;
#X obj 53 169 *;
#X obj 53 146 t f f;
#X floatatom 237 -127 5 0 0 0 - - -;
#X floatatom 263 -162 5 0 0 0 - - -;
#X floatatom 336 -164 5 0 0 0 - - -;
#X floatatom 45 -179 5 0 0 0 - - -;
#X floatatom 163 -168 5 0 0 0 - - -;
#X obj 159 338 *~;
#X obj 833 202 line~;
#X obj 833 181 pack f 12;
#X obj 600 223 *~;
#X obj 832 235 *~ -1;
#X obj 832 257 +~ 1;
#X obj 503 277 *~;
#X obj 833 -201 r fofRmsRing-\$1;
#X obj 92 -159 pack f 12;
#X obj 599 -200 r~ vocBP-\$3;
#X connect 0 0 3 1;
#X connect 1 0 3 2;
#X connect 2 0 3 3;
#X connect 3 0 32 0;
#X connect 9 0 31 0;
#X connect 9 0 40 0;
#X connect 11 0 38 0;
#X connect 12 0 17 1;
#X connect 12 0 18 1;
#X connect 13 0 28 0;
#X connect 13 0 3 2;
#X connect 14 0 3 3;
#X connect 14 0 29 0;
#X connect 15 0 20 0;
#X connect 16 0 17 0;
#X connect 17 0 18 0;
#X connect 18 0 3 0;
#X connect 19 0 26 0;
#X connect 20 0 16 0;
#X connect 21 0 22 0;
#X connect 22 0 24 0;
#X connect 22 1 24 1;
#X connect 23 0 12 0;
#X connect 23 0 24 0;
#X connect 23 0 30 0;
#X connect 24 0 3 1;
#X connect 25 0 16 1;
#X connect 26 0 25 0;
#X connect 26 1 25 1;
#X connect 32 0 10 0;
#X connect 33 0 36 0;
#X connect 33 0 35 1;
#X connect 34 0 33 0;
#X connect 35 0 32 1;
#X connect 36 0 37 0;
#X connect 37 0 38 1;
#X connect 38 0 32 1;
#X connect 39 0 34 0;
#X connect 40 0 21 0;
#X connect 41 0 35 0;
