#N canvas 1026 47 1494 1012 10;
#X floatatom 175 29 0 0 0 0 - - -;
#X floatatom 192 64 0 0 0 0 - - -;
#X floatatom 209 126 0 0 0 0 - - -;
#X obj 158 274 fofsynth~;
#X text 221 269 fofsynth~ is the same as fof~;
#X text 206 29 formant frequency;
#X text 222 63 raise time in percent;
#X text 240 127 fall time in % of period;
#X text 283 -10 THIS IS STILL NOT REALLY FINISHED;
#X obj 92 -207 inlet formant;
#X obj 159 372 outlet~;
#X obj 158 344 *~;
#X obj 447 -199 inlet~ vol;
#X obj 132 142 sig~;
#X obj 212 -204 r fofRaise-\$1;
#X obj 300 -203 r fofFall-\$1;
#X obj 31 70 noise~;
#X obj 32 139 *~ 1;
#X obj 86 184 *~;
#X obj 86 206 +~;
#X obj 53 116 r fofPitchRand-\$1;
#X obj 31 92 lop~ 0.3;
#X obj 92 -84 line;
#X obj 92 -156 tanh;
#X obj 92 -178 * 5e-05;
#X obj 92 -134 * 20000;
#X obj 92 -55 t b f;
#X obj 27 -209 r pitch-\$2;
#X obj 92 -33 *;
#X obj 92 -106 pack f 300;
#X obj 473 -62 rms~;
#X obj 504 -145 * -1;
#X obj 504 -123 + 1;
#X obj 473 -91 *~ 1;
#X obj 515 -65 *~ 0;
#X obj 473 -40 +~;
#X obj 604 -167 r fofRmsRing-\$1;
#X connect 0 0 3 1;
#X connect 1 0 3 2;
#X connect 2 0 3 3;
#X connect 3 0 11 0;
#X connect 9 0 24 0;
#X connect 11 0 10 0;
#X connect 12 0 33 0;
#X connect 12 0 34 0;
#X connect 13 0 18 1;
#X connect 13 0 19 1;
#X connect 14 0 3 2;
#X connect 15 0 3 3;
#X connect 16 0 21 0;
#X connect 17 0 18 0;
#X connect 18 0 19 0;
#X connect 19 0 3 0;
#X connect 20 0 17 1;
#X connect 21 0 17 0;
#X connect 22 0 26 0;
#X connect 23 0 25 0;
#X connect 24 0 23 0;
#X connect 25 0 29 0;
#X connect 26 0 28 0;
#X connect 26 1 28 1;
#X connect 27 0 13 0;
#X connect 27 0 28 0;
#X connect 28 0 3 1;
#X connect 29 0 22 0;
#X connect 30 0 35 0;
#X connect 31 0 32 0;
#X connect 32 0 33 1;
#X connect 33 0 30 0;
#X connect 34 0 35 1;
#X connect 35 0 11 1;
#X connect 36 0 31 0;
#X connect 36 0 34 1;
