#N canvas 1026 47 1571 1012 10;
#X obj 590 173 * -1;
#X obj 590 195 + 1;
#X obj 536 953 s \$1-\$2;
#X obj 717 62 r LeftRight-\$2;
#X obj 536 16 r \$1-TopLeft;
#X obj 680 19 r \$1-TopRight;
#X obj 879 15 r \$1-BottomLeft;
#X obj 998 13 r \$1-BottomRight;
#X obj 578 561 r TopBottom-\$2;
#X obj 933 698 * -1;
#X obj 933 720 + 1;
#X obj 933 741 t b f;
#X text 509 518 top;
#X text 944 522 bottom;
#X obj 536 521 list-add;
#X obj 879 522 list-add;
#X obj 536 417 t b l;
#X obj 536 928 list-add;
#X obj 536 393 list-apply * 1;
#X obj 536 371 l;
#X obj 680 393 list-apply * 1;
#X obj 680 371 l;
#X obj 536 745 list-apply * 1;
#X obj 536 723 l;
#X obj 536 767 t b l;
#X obj 879 798 list-apply * 1;
#X obj 879 776 l;
#X obj 879 404 t b l;
#X obj 879 380 list-apply * 1;
#X obj 879 358 l;
#X obj 998 381 list-apply * 1;
#X obj 998 359 l;
#X obj 536 486 l;
#X obj 536 907 l;
#X obj 879 469 l;
#X obj 578 590 t f b f;
#X obj 717 84 t b f b f f;
#X obj 590 217 t b f b f;
#X connect 0 0 1 0;
#X connect 1 0 37 0;
#X connect 3 0 36 0;
#X connect 4 0 19 0;
#X connect 5 0 21 0;
#X connect 6 0 29 0;
#X connect 7 0 31 0;
#X connect 8 0 35 0;
#X connect 9 0 10 0;
#X connect 10 0 11 0;
#X connect 11 0 26 0;
#X connect 11 1 25 2;
#X connect 14 0 23 0;
#X connect 15 0 26 0;
#X connect 16 0 32 0;
#X connect 16 1 14 1;
#X connect 17 0 2 0;
#X connect 18 0 16 0;
#X connect 19 0 18 0;
#X connect 20 0 32 0;
#X connect 21 0 20 0;
#X connect 22 0 24 0;
#X connect 23 0 22 0;
#X connect 24 0 33 0;
#X connect 24 1 17 1;
#X connect 25 0 33 0;
#X connect 26 0 25 0;
#X connect 27 0 34 0;
#X connect 27 1 15 1;
#X connect 28 0 27 0;
#X connect 29 0 28 0;
#X connect 30 0 34 0;
#X connect 31 0 30 0;
#X connect 32 0 14 0;
#X connect 33 0 17 0;
#X connect 34 0 15 0;
#X connect 35 0 9 0;
#X connect 35 1 23 0;
#X connect 35 2 22 2;
#X connect 36 0 31 0;
#X connect 36 1 30 2;
#X connect 36 2 21 0;
#X connect 36 3 20 2;
#X connect 36 4 0 0;
#X connect 37 0 29 0;
#X connect 37 1 28 2;
#X connect 37 2 19 1;
#X connect 37 3 18 2;
