#N canvas 1026 47 1571 1012 10;
#X obj 437 309 s;
#X obj 452 283 mergefilename -;
#X obj 452 206 loadbang;
#X obj 452 182 bng 15 250 50 0 empty empty empty 17 7 0 10 -262144
-1 -1;
#X obj 437 150 inlet;
#X obj 452 259 prepend \$1;
#X obj 378 287 ps \$1 \$2;
#X obj 378 309 outlet;
#N canvas 1026 47 1571 1012 getPath 0;
#X obj 170 182 splitfilename $;
#X symbolatom 170 334 33 0 0 0 - - -;
#X obj 170 289 spigot 1;
#X msg 181 266 1;
#X obj 194 216 sprintf %s;
#X obj 194 238 route float;
#X msg 218 266 0;
#X floatatom 71 145 5 0 0 0 - - -;
#X obj 30 117 route bang float symbol list;
#X obj 71 165 bng 15 250 50 0 empty empty float -4 23 1 12 -262144
-1 -1;
#X text 251 74 test argument(1). strip backslash(es).;
#X obj 170 423 outlet;
#X text 217 424 select criterium.;
#X msg 71 388 symbol -root-;
#X obj 257 301 stripfilename 2;
#X text 252 52 ezpst version 1.9;
#X obj 170 63 inlet;
#X obj 170 100 prepend list \$2;
#X connect 0 0 2 0;
#X connect 0 1 4 0;
#X connect 0 1 14 0;
#X connect 1 0 11 0;
#X connect 2 0 1 0;
#X connect 3 0 2 1;
#X connect 4 0 5 0;
#X connect 5 1 6 0;
#X connect 6 0 2 1;
#X connect 7 0 9 0;
#X connect 8 1 7 0;
#X connect 8 2 0 0;
#X connect 9 0 13 0;
#X connect 13 0 11 0;
#X connect 14 0 1 0;
#X connect 16 0 17 0;
#X connect 17 0 8 0;
#X restore 452 233 pd getPath;
#X connect 1 0 0 1;
#X connect 2 0 8 0;
#X connect 3 0 2 0;
#X connect 4 0 0 0;
#X connect 4 0 6 0;
#X connect 5 0 1 0;
#X connect 6 0 7 0;
#X connect 8 0 5 0;
