#N canvas 1026 47 1571 1012 10;
#X obj 218 590 cos~;
#X text 215 13 carrier;
#X text 214 31 frequency;
#X text 143 327 carrier;
#X text 143 342 phase -->;
#X text 95 545 modulation-->;
#X text 102 572 output;
#X text 101 589 waveform -->;
#X obj 218 702 outlet~;
#X obj 219 345 wrap~;
#X obj 219 323 *~ 4;
#X obj 240 281 inlet multiplier;
#X obj 611 201 *~ 4;
#X obj 501 201 *~ 2;
#X obj 721 201 *~ 8;
#X obj 831 201 *~ 16;
#X obj 220 51 r~ fundamental-\$1;
#X obj 219 137 *~ 4;
#X obj 409 83 * 4;
#X obj 409 54 r oct-PM-\$1;
#X obj 217 565 +~;
#X obj 267 537 *~;
#X obj 295 403 - 1;
#X obj 295 447 + 1;
#X obj 267 504 line~;
#X obj 267 483 pack f 12;
#X floatatom 295 469 5 0 0 0 - - -;
#X obj 295 425 * 0.07;
#N canvas 1026 47 1571 1012 osc+2 0;
#X obj 840 242 cos~;
#X obj 840 351 tanh~;
#X obj 840 331 *~;
#X obj 840 443 *~;
#X obj 856 266 r pm+2dist-\$1;
#X obj 856 376 r pm+2-\$1;
#X obj 856 308 line~;
#X obj 856 287 pack f 12;
#X obj 856 420 line~;
#X obj 856 399 pack f 12;
#X obj 840 219 inlet~;
#X obj 840 465 outlet~;
#X obj 975 480 == 0;
#X obj 975 502 invert;
#X text 1023 489 also works for negative volumes;
#X obj 975 527 switch~;
#X floatatom 923 523 5 0 0 0 - - -;
#X floatatom 975 450 5 0 0 0 - - -;
#X connect 0 0 2 0;
#X connect 1 0 3 0;
#X connect 2 0 1 0;
#X connect 3 0 11 0;
#X connect 4 0 7 0;
#X connect 5 0 9 0;
#X connect 5 0 12 0;
#X connect 6 0 2 1;
#X connect 7 0 6 0;
#X connect 8 0 3 1;
#X connect 9 0 8 0;
#X connect 10 0 0 0;
#X connect 12 0 13 0;
#X connect 13 0 15 0;
#X connect 13 0 16 0;
#X restore 752 343 pd osc+2;
#N canvas 1026 47 1571 1012 osc+1 0;
#X obj 840 242 cos~;
#X obj 840 351 tanh~;
#X obj 840 331 *~;
#X obj 840 443 *~;
#X obj 856 308 line~;
#X obj 856 287 pack f 12;
#X obj 856 420 line~;
#X obj 856 399 pack f 12;
#X obj 840 219 inlet~;
#X obj 840 465 outlet~;
#X obj 975 480 == 0;
#X obj 975 502 invert;
#X text 1023 489 also works for negative volumes;
#X obj 975 527 switch~;
#X floatatom 923 523 5 0 0 0 - - -;
#X floatatom 975 450 5 0 0 0 - - -;
#X obj 856 266 r pm+1dist-\$1;
#X obj 856 376 r pm+1-\$1;
#X connect 0 0 2 0;
#X connect 1 0 3 0;
#X connect 2 0 1 0;
#X connect 3 0 9 0;
#X connect 4 0 2 1;
#X connect 5 0 4 0;
#X connect 6 0 3 1;
#X connect 7 0 6 0;
#X connect 8 0 0 0;
#X connect 10 0 11 0;
#X connect 11 0 13 0;
#X connect 11 0 14 0;
#X connect 16 0 5 0;
#X connect 17 0 7 0;
#X connect 17 0 10 0;
#X restore 689 342 pd osc+1;
#N canvas 1026 47 1571 1012 osc+0 0;
#X obj 840 242 cos~;
#X obj 840 351 tanh~;
#X obj 840 331 *~;
#X obj 840 443 *~;
#X obj 856 308 line~;
#X obj 856 287 pack f 12;
#X obj 856 420 line~;
#X obj 856 399 pack f 12;
#X obj 840 219 inlet~;
#X obj 840 465 outlet~;
#X obj 975 480 == 0;
#X obj 975 502 invert;
#X text 1023 489 also works for negative volumes;
#X obj 975 527 switch~;
#X floatatom 923 523 5 0 0 0 - - -;
#X floatatom 975 450 5 0 0 0 - - -;
#X obj 856 266 r pm0dist-\$1;
#X obj 856 376 r pm0-\$1;
#X connect 0 0 2 0;
#X connect 1 0 3 0;
#X connect 2 0 1 0;
#X connect 3 0 9 0;
#X connect 4 0 2 1;
#X connect 5 0 4 0;
#X connect 6 0 3 1;
#X connect 7 0 6 0;
#X connect 8 0 0 0;
#X connect 10 0 11 0;
#X connect 11 0 13 0;
#X connect 11 0 14 0;
#X connect 16 0 5 0;
#X connect 17 0 7 0;
#X connect 17 0 10 0;
#X restore 629 342 pd osc+0;
#N canvas 1026 47 1571 1012 osc-1 0;
#X obj 840 242 cos~;
#X obj 840 351 tanh~;
#X obj 840 331 *~;
#X obj 840 443 *~;
#X obj 856 308 line~;
#X obj 856 287 pack f 12;
#X obj 856 420 line~;
#X obj 856 399 pack f 12;
#X obj 840 219 inlet~;
#X obj 840 465 outlet~;
#X obj 975 480 == 0;
#X obj 975 502 invert;
#X text 1023 489 also works for negative volumes;
#X obj 975 527 switch~;
#X floatatom 923 523 5 0 0 0 - - -;
#X floatatom 975 450 5 0 0 0 - - -;
#X obj 856 266 r pm-1dist-\$1;
#X obj 856 376 r pm-1-\$1;
#X connect 0 0 2 0;
#X connect 1 0 3 0;
#X connect 2 0 1 0;
#X connect 3 0 9 0;
#X connect 4 0 2 1;
#X connect 5 0 4 0;
#X connect 6 0 3 1;
#X connect 7 0 6 0;
#X connect 8 0 0 0;
#X connect 10 0 11 0;
#X connect 11 0 13 0;
#X connect 11 0 14 0;
#X connect 16 0 5 0;
#X connect 17 0 7 0;
#X connect 17 0 10 0;
#X restore 572 343 pd osc-1;
#N canvas 1026 47 1571 1012 osc-2 1;
#X obj 840 222 cos~;
#X obj 840 351 tanh~;
#X obj 840 331 *~;
#X obj 840 443 *~;
#X obj 856 308 line~;
#X obj 856 287 pack f 12;
#X obj 856 420 line~;
#X obj 856 399 pack f 12;
#X obj 840 199 inlet~;
#X obj 840 465 outlet~;
#X obj 975 480 == 0;
#X obj 975 502 invert;
#X text 1023 489 also works for negative volumes;
#X obj 975 527 switch~;
#X floatatom 923 523 5 0 0 0 - - -;
#X obj 856 262 r pm-2dist-\$1;
#X obj 856 376 r pm-2-\$1;
#X connect 0 0 2 0;
#X connect 1 0 3 0;
#X connect 2 0 1 0;
#X connect 3 0 9 0;
#X connect 4 0 2 1;
#X connect 5 0 4 0;
#X connect 6 0 3 1;
#X connect 7 0 6 0;
#X connect 8 0 0 0;
#X connect 10 0 11 0;
#X connect 11 0 13 0;
#X connect 11 0 14 0;
#X connect 15 0 5 0;
#X connect 16 0 7 0;
#X connect 16 0 10 0;
#X restore 509 342 pd osc-2;
#X connect 0 0 8 0;
#X connect 9 0 20 0;
#X connect 10 0 9 0;
#X connect 11 0 10 1;
#X connect 11 0 22 0;
#X connect 12 0 30 0;
#X connect 13 0 31 0;
#X connect 14 0 29 0;
#X connect 15 0 28 0;
#X connect 16 0 15 0;
#X connect 16 0 14 0;
#X connect 16 0 12 0;
#X connect 16 0 13 0;
#X connect 16 0 17 0;
#X connect 16 0 32 0;
#X connect 17 0 10 0;
#X connect 18 0 17 1;
#X connect 19 0 18 0;
#X connect 20 0 0 0;
#X connect 21 0 20 1;
#X connect 22 0 27 0;
#X connect 23 0 25 0;
#X connect 23 0 26 0;
#X connect 24 0 21 0;
#X connect 25 0 24 0;
#X connect 27 0 23 0;
#X connect 28 0 21 1;
#X connect 29 0 21 1;
#X connect 30 0 21 1;
#X connect 31 0 21 1;
#X connect 32 0 21 1;
