#N canvas 1026 47 1571 1012 12;
#X obj 32 41 cnv 15 100 60 empty empty empty 20 12 0 14 -233017 -66577
0;
#X floatatom 206 355 5 0 0 0 - - -;
#X obj 206 214 vsl 15 128 0 1 0 0 empty empty empty 0 -9 0 10 -262144
-1 -1 0 1;
#X text 201 190 sub;
#X text 237 190 paf;
#X text 275 188 ring;
#X text 376 188 fof;
#X text 409 188 PM;
#X text 433 188 mindwarp;
#X text 585 190 clean;
#X text 505 188 lpc;
#X text 536 190 vosim;
#X obj 201 121 ezpst presets \$1;
#X obj 137 270 ps \$1 sub;
#X obj 206 615 s;
#X obj 222 420 loadbang;
#X msg 326 473 sub;
#X obj 224 553 mergefilename -;
#X obj 224 512 prepend;
#X obj 222 396 bng 15 250 50 0 empty empty empty 17 7 0 10 -262144
-1 -1;
#X obj 222 445 t b b;
#N canvas 1026 47 1571 1012 getPath 0;
#X obj 170 182 splitfilename $;
#X symbolatom 170 334 33 0 0 0 - - -;
#X obj 170 289 spigot 1;
#X msg 181 266 1;
#X obj 194 216 sprintf %s;
#X obj 194 238 route float;
#X msg 218 266 0;
#X floatatom 71 145 5 0 0 0 - - -;
#X obj 30 117 route bang float symbol list;
#X obj 71 165 bng 15 250 50 0 empty empty float -4 23 1 12 -262144
-1 -1;
#X text 251 74 test argument(1). strip backslash(es).;
#X obj 170 423 outlet;
#X text 217 424 select criterium.;
#X msg 71 388 symbol -root-;
#X obj 170 100 prepend list \$1;
#X obj 257 301 stripfilename 2;
#X text 252 52 ezpst version 1.9;
#X obj 170 63 inlet;
#X connect 0 0 2 0;
#X connect 0 1 4 0;
#X connect 0 1 15 0;
#X connect 1 0 11 0;
#X connect 2 0 1 0;
#X connect 3 0 2 1;
#X connect 4 0 5 0;
#X connect 5 1 6 0;
#X connect 6 0 2 1;
#X connect 7 0 9 0;
#X connect 8 1 7 0;
#X connect 8 2 0 0;
#X connect 9 0 13 0;
#X connect 13 0 11 0;
#X connect 14 0 8 0;
#X connect 15 0 1 0;
#X connect 17 0 14 0;
#X restore 224 475 pd getPath \$1;
#X obj 326 615 s;
#X obj 344 553 mergefilename -;
#X obj 344 512 prepend;
#X obj 446 615 s;
#X obj 464 553 mergefilename -;
#X obj 464 512 prepend;
#X obj 566 615 s;
#X obj 584 553 mergefilename -;
#X obj 584 512 prepend;
#X obj 686 615 s;
#X obj 704 553 mergefilename -;
#X obj 704 512 prepend;
#X msg 390 473 paf;
#X msg 510 473 ring;
#X msg 630 473 classic;
#X msg 750 473 fof;
#X obj 806 615 s;
#X obj 824 553 mergefilename -;
#X obj 824 512 prepend;
#X obj 926 615 s;
#X obj 944 553 mergefilename -;
#X obj 944 512 prepend;
#X obj 1046 615 s;
#X obj 1064 553 mergefilename -;
#X obj 1064 512 prepend;
#X obj 1166 615 s;
#X obj 1184 553 mergefilename -;
#X obj 1184 512 prepend;
#X obj 1286 615 s;
#X obj 1304 553 mergefilename -;
#X obj 1304 512 prepend;
#X msg 870 473 PM;
#X msg 990 473 mindwarp;
#X msg 1110 473 lpc;
#X msg 1230 473 vosim;
#X msg 1350 473 clean;
#X floatatom 246 355 5 0 0 0 - - -;
#X obj 246 214 vsl 15 128 0 1 0 0 empty empty empty 0 -9 0 10 -262144
-1 -1 12700 1;
#X obj 127 297 ps \$1 paf;
#X floatatom 286 355 5 0 0 0 - - -;
#X obj 286 214 vsl 15 128 0 1 0 0 empty empty empty 0 -9 0 10 -262144
-1 -1 0 1;
#X floatatom 336 355 5 0 0 0 - - -;
#X obj 336 214 vsl 15 128 0 1 0 0 empty empty empty 0 -9 0 10 -262144
-1 -1 0 1;
#X floatatom 376 355 5 0 0 0 - - -;
#X obj 376 214 vsl 15 128 0 1 0 0 empty empty empty 0 -9 0 10 -262144
-1 -1 0 1;
#X floatatom 416 355 5 0 0 0 - - -;
#X obj 416 214 vsl 15 128 0 1 0 0 empty empty empty 0 -9 0 10 -262144
-1 -1 0 1;
#X floatatom 456 355 5 0 0 0 - - -;
#X obj 456 214 vsl 15 128 0 1 0 0 empty empty empty 0 -9 0 10 -262144
-1 -1 0 1;
#X floatatom 506 355 5 0 0 0 - - -;
#X obj 506 214 vsl 15 128 0 1 0 0 empty empty empty 0 -9 0 10 -262144
-1 -1 0 1;
#X floatatom 546 355 5 0 0 0 - - -;
#X obj 546 214 vsl 15 128 0 1 0 0 empty empty empty 0 -9 0 10 -262144
-1 -1 0 1;
#X floatatom 596 355 5 0 0 0 - - -;
#X obj 596 214 vsl 15 128 0 1 0 0 empty empty empty 0 -9 0 10 -262144
-1 -1 0 1;
#X text 319 188 classic;
#X obj 124 323 ps \$1 ring;
#X obj 102 350 ps \$1 classic;
#X obj 129 376 ps \$1 fof;
#X obj 133 404 ps \$1 PM;
#X obj 93 433 ps \$1 mindwarp;
#X obj 130 462 ps \$1 lpc;
#X obj 115 492 ps \$1 vosim;
#X obj 115 522 ps \$1 clean;
#X connect 1 0 14 0;
#X connect 2 0 1 0;
#X connect 2 0 13 0;
#X connect 13 0 2 0;
#X connect 15 0 20 0;
#X connect 16 0 18 1;
#X connect 17 0 14 1;
#X connect 18 0 17 0;
#X connect 19 0 15 0;
#X connect 20 0 21 0;
#X connect 20 1 16 0;
#X connect 20 1 34 0;
#X connect 20 1 35 0;
#X connect 20 1 36 0;
#X connect 20 1 37 0;
#X connect 20 1 53 0;
#X connect 20 1 54 0;
#X connect 20 1 55 0;
#X connect 20 1 56 0;
#X connect 20 1 57 0;
#X connect 21 0 18 0;
#X connect 21 0 24 0;
#X connect 21 0 27 0;
#X connect 21 0 30 0;
#X connect 21 0 33 0;
#X connect 21 0 40 0;
#X connect 21 0 43 0;
#X connect 21 0 46 0;
#X connect 21 0 49 0;
#X connect 21 0 52 0;
#X connect 23 0 22 1;
#X connect 24 0 23 0;
#X connect 26 0 25 1;
#X connect 27 0 26 0;
#X connect 29 0 28 1;
#X connect 30 0 29 0;
#X connect 32 0 31 1;
#X connect 33 0 32 0;
#X connect 34 0 24 1;
#X connect 35 0 27 1;
#X connect 36 0 30 1;
#X connect 37 0 33 1;
#X connect 39 0 38 1;
#X connect 40 0 39 0;
#X connect 42 0 41 1;
#X connect 43 0 42 0;
#X connect 45 0 44 1;
#X connect 46 0 45 0;
#X connect 48 0 47 1;
#X connect 49 0 48 0;
#X connect 51 0 50 1;
#X connect 52 0 51 0;
#X connect 53 0 40 1;
#X connect 54 0 43 1;
#X connect 55 0 46 1;
#X connect 56 0 49 1;
#X connect 57 0 52 1;
#X connect 58 0 22 0;
#X connect 59 0 58 0;
#X connect 59 0 60 0;
#X connect 60 0 59 0;
#X connect 61 0 25 0;
#X connect 62 0 61 0;
#X connect 62 0 78 0;
#X connect 63 0 28 0;
#X connect 64 0 63 0;
#X connect 64 0 79 0;
#X connect 65 0 31 0;
#X connect 66 0 65 0;
#X connect 66 0 80 0;
#X connect 67 0 38 0;
#X connect 68 0 67 0;
#X connect 68 0 81 0;
#X connect 69 0 41 0;
#X connect 70 0 69 0;
#X connect 70 0 82 0;
#X connect 71 0 44 0;
#X connect 72 0 71 0;
#X connect 72 0 83 0;
#X connect 73 0 47 0;
#X connect 74 0 73 0;
#X connect 74 0 84 0;
#X connect 75 0 50 0;
#X connect 76 0 75 0;
#X connect 76 0 85 0;
#X connect 78 0 62 0;
#X connect 79 0 64 0;
#X connect 80 0 66 0;
#X connect 81 0 68 0;
#X connect 82 0 70 0;
#X connect 83 0 72 0;
#X connect 84 0 74 0;
#X connect 85 0 76 0;
#X coords 0 -1 1 1 450 285 1 200 100;
