#N canvas 1026 47 1494 1012 10;
#X obj 147 249 reson~ 1 \$1 7;
#X obj 146 273 reson~ 1 \$1 7;
#X obj 146 94 inlet~ carier;
#X obj 146 301 outlet~;
#X obj 259 125 inlet q;
#X obj 259 170 line~;
#X obj 259 149 pack f 12;
#X obj 187 125 inlet~ freq;
#X connect 0 0 1 0;
#X connect 1 0 3 0;
#X connect 2 0 0 0;
#X connect 4 0 6 0;
#X connect 5 0 0 3;
#X connect 5 0 1 3;
#X connect 6 0 5 0;
#X connect 7 0 0 2;
#X connect 7 0 1 2;
