#N canvas 1026 47 1571 1012 10;
#X obj 325 -317 *;
#X obj 383 -297 *;
#X obj 443 -277 *;
#X obj 504 -257 *;
#X obj 564 -237 *;
#X obj 624 -217 *;
#X obj 264 -337 *;
#X obj 736 -383 t b f;
#X obj 744 -177 *;
#X obj 804 -157 *;
#X obj 864 -137 *;
#X obj 924 -117 *;
#X obj 984 -97 *;
#X obj 1044 -77 *;
#X obj 684 -197 *;
#X obj 1084 -77 *;
#X obj 736 -419 inlet mult;
#X text 422 -17 formant pitch;
#X obj 521 -18 pack 1 2 3 4 5 6 7 8 9 10 11 12 13 14 15 16;
#X obj 521 5 outlet freqs;
#X obj 163 -403 inlet Base;
#X floatatom 262 -390 5 0 0 0 - - -;
#X floatatom 325 -295 5 0 0 0 - - -;
#X floatatom 688 -406 5 0 0 0 - - -;
#X floatatom 1137 -300 0 0 0 0 - - -;
#X floatatom 1245 -304 0 0 0 0 - - -;
#X obj 1245 -282 t b f;
#X obj 1217 -49 *;
#X obj 1325 -282 t b f;
#X obj 1305 -330 - 1;
#X obj 1291 -161 /;
#X obj 1314 -195 t b f;
#X floatatom 1358 -134 5 0 0 0 - - -;
#X floatatom 1044 -55 5 0 0 0 - - -;
#X floatatom 984 -75 5 0 0 0 - - -;
#X floatatom 924 -95 5 0 0 0 - - -;
#X obj 301 -104 *;
#X obj 316 -130 pow 2;
#X obj 1032 -30 t b f;
#X obj 1234 -244 pow 15;
#X obj 1314 -244 pow 14;
#X obj 1313 -220 *;
#X obj 1291 -139 t b f;
#X floatatom 1217 -27 5 0 0 0 - - -;
#X obj 1241 -208 *;
#X msg 1138 10 1;
#X msg 1064 -209;
#X obj 1138 32 / 15;
#X obj 1127 69 pow;
#X floatatom 1127 91 5 0 0 0 - - -;
#X floatatom 1084 -55 5 0 0 0 - - -;
#X obj 1091 12 /;
#X connect 0 0 1 0;
#X connect 0 0 18 2;
#X connect 0 0 22 0;
#X connect 1 0 2 0;
#X connect 1 0 18 3;
#X connect 2 0 3 0;
#X connect 2 0 18 4;
#X connect 3 0 4 0;
#X connect 3 0 18 5;
#X connect 4 0 5 0;
#X connect 4 0 18 6;
#X connect 5 0 14 0;
#X connect 5 0 18 7;
#X connect 6 0 0 0;
#X connect 6 0 18 1;
#X connect 7 0 6 0;
#X connect 7 0 0 0;
#X connect 7 0 1 0;
#X connect 7 0 2 0;
#X connect 7 0 3 0;
#X connect 7 0 4 0;
#X connect 7 0 5 0;
#X connect 7 0 14 0;
#X connect 7 0 8 0;
#X connect 7 0 9 0;
#X connect 7 0 10 0;
#X connect 7 0 11 0;
#X connect 7 0 12 0;
#X connect 7 0 13 0;
#X connect 7 0 15 0;
#X connect 7 0 18 0;
#X connect 7 1 6 1;
#X connect 7 1 0 1;
#X connect 7 1 1 1;
#X connect 7 1 2 1;
#X connect 7 1 3 1;
#X connect 7 1 4 1;
#X connect 7 1 5 1;
#X connect 7 1 14 1;
#X connect 7 1 8 1;
#X connect 7 1 9 1;
#X connect 7 1 10 1;
#X connect 7 1 11 1;
#X connect 7 1 12 1;
#X connect 7 1 13 1;
#X connect 7 1 15 1;
#X connect 8 0 9 0;
#X connect 8 0 18 9;
#X connect 9 0 10 0;
#X connect 9 0 18 10;
#X connect 10 0 11 0;
#X connect 10 0 18 11;
#X connect 11 0 12 0;
#X connect 11 0 18 12;
#X connect 11 0 35 0;
#X connect 12 0 13 0;
#X connect 12 0 18 13;
#X connect 12 0 34 0;
#X connect 13 0 15 0;
#X connect 13 0 18 14;
#X connect 13 0 33 0;
#X connect 14 0 8 0;
#X connect 14 0 18 8;
#X connect 15 0 18 15;
#X connect 15 0 50 0;
#X connect 16 0 7 0;
#X connect 18 0 19 0;
#X connect 20 0 6 0;
#X connect 20 0 18 0;
#X connect 20 0 36 0;
#X connect 21 0 6 0;
#X connect 21 0 38 0;
#X connect 23 0 7 0;
#X connect 24 0 39 0;
#X connect 24 0 40 0;
#X connect 25 0 26 0;
#X connect 25 0 29 0;
#X connect 26 0 39 0;
#X connect 26 1 39 1;
#X connect 27 0 43 0;
#X connect 28 0 40 0;
#X connect 28 1 40 1;
#X connect 29 0 28 0;
#X connect 30 0 32 0;
#X connect 30 0 42 0;
#X connect 30 0 27 0;
#X connect 31 0 30 0;
#X connect 31 1 30 1;
#X connect 37 0 36 1;
#X connect 38 0 51 0;
#X connect 38 1 51 1;
#X connect 39 0 44 0;
#X connect 40 0 41 0;
#X connect 41 0 31 0;
#X connect 44 0 30 0;
#X connect 45 0 47 0;
#X connect 47 0 48 1;
#X connect 48 0 49 0;
#X connect 50 0 51 0;
#X connect 51 0 48 0;
