#N canvas 1026 47 1571 1012 10;
#X obj 736 -383 t b f;
#X text 22 -19 formant pitch;
#X obj 121 -20 pack 1 2 3 4 5 6 7 8 9 10 11 12 13 14 15 16;
#X obj 121 13 outlet freqs;
#X obj 122 -402 inlet Base;
#X floatatom 688 -406 5 0 0 0 - - -;
#X msg 622 -274 1;
#X obj 622 -252 / 15;
#X obj 607 -224 pow;
#X obj 513 -288 /;
#X obj 768 -88 *;
#X obj 768 -133 pow 14;
#X obj 768 -111 t b f;
#X obj 718 -88 *;
#X obj 718 -111 t b f;
#X obj 668 -88 *;
#X obj 668 -111 t b f;
#X obj 618 -88 *;
#X obj 618 -111 t b f;
#X obj 568 -88 *;
#X obj 568 -111 t b f;
#X obj 518 -88 *;
#X obj 518 -111 t b f;
#X obj 468 -88 *;
#X obj 468 -111 t b f;
#X obj 418 -88 *;
#X obj 418 -111 t b f;
#X obj 368 -88 *;
#X obj 368 -111 t b f;
#X obj 318 -88 *;
#X obj 318 -111 t b f;
#X obj 718 -133 pow 13;
#X obj 668 -133 pow 12;
#X obj 618 -133 pow 11;
#X obj 568 -133 pow 10;
#X obj 518 -133 pow 9;
#X obj 468 -133 pow 8;
#X obj 418 -133 pow 7;
#X obj 368 -133 pow 6;
#X obj 318 -133 pow 5;
#X obj 278 -88 *;
#X obj 278 -111 t b f;
#X obj 228 -88 *;
#X obj 228 -111 t b f;
#X obj 178 -88 *;
#X obj 178 -111 t b f;
#X obj 278 -133 pow 4;
#X obj 228 -133 pow 3;
#X obj 178 -133 pow 2;
#X obj 138 -88 *;
#X obj 138 -111 t b f;
#X obj 622 -322 bng 15 250 50 0 empty empty empty 17 7 0 10 -262144
-1 -1;
#X obj 622 -302 loadbang;
#X obj 736 -419 inlet topFreq;
#X obj 122 -380 t f f b f;
#X connect 0 0 2 0;
#X connect 0 1 2 15;
#X connect 0 1 9 0;
#X connect 2 0 3 0;
#X connect 4 0 54 0;
#X connect 5 0 0 0;
#X connect 6 0 7 0;
#X connect 7 0 8 1;
#X connect 8 0 11 0;
#X connect 8 0 31 0;
#X connect 8 0 32 0;
#X connect 8 0 33 0;
#X connect 8 0 34 0;
#X connect 8 0 35 0;
#X connect 8 0 36 0;
#X connect 8 0 37 0;
#X connect 8 0 38 0;
#X connect 8 0 39 0;
#X connect 8 0 46 0;
#X connect 8 0 47 0;
#X connect 8 0 48 0;
#X connect 8 0 50 0;
#X connect 9 0 8 0;
#X connect 10 0 2 14;
#X connect 11 0 12 0;
#X connect 12 0 10 0;
#X connect 12 1 10 1;
#X connect 13 0 2 13;
#X connect 14 0 13 0;
#X connect 14 1 13 1;
#X connect 15 0 2 12;
#X connect 16 0 15 0;
#X connect 16 1 15 1;
#X connect 17 0 2 11;
#X connect 18 0 17 0;
#X connect 18 1 17 1;
#X connect 19 0 2 10;
#X connect 20 0 19 0;
#X connect 20 1 19 1;
#X connect 21 0 2 9;
#X connect 22 0 21 0;
#X connect 22 1 21 1;
#X connect 23 0 2 8;
#X connect 24 0 23 0;
#X connect 24 1 23 1;
#X connect 25 0 2 7;
#X connect 26 0 25 0;
#X connect 26 1 25 1;
#X connect 27 0 2 6;
#X connect 28 0 27 0;
#X connect 28 1 27 1;
#X connect 29 0 2 5;
#X connect 30 0 29 0;
#X connect 30 1 29 1;
#X connect 31 0 14 0;
#X connect 32 0 16 0;
#X connect 33 0 18 0;
#X connect 34 0 20 0;
#X connect 35 0 22 0;
#X connect 36 0 24 0;
#X connect 37 0 26 0;
#X connect 38 0 28 0;
#X connect 39 0 30 0;
#X connect 40 0 2 4;
#X connect 41 0 40 0;
#X connect 41 1 40 1;
#X connect 42 0 2 3;
#X connect 43 0 42 0;
#X connect 43 1 42 1;
#X connect 44 0 2 2;
#X connect 45 0 44 0;
#X connect 45 1 44 1;
#X connect 46 0 41 0;
#X connect 47 0 43 0;
#X connect 48 0 45 0;
#X connect 49 0 2 1;
#X connect 50 0 49 0;
#X connect 50 1 49 1;
#X connect 51 0 52 0;
#X connect 52 0 6 0;
#X connect 53 0 0 0;
#X connect 54 0 2 0;
#X connect 54 1 17 0;
#X connect 54 1 10 0;
#X connect 54 1 13 0;
#X connect 54 1 15 0;
#X connect 54 1 19 0;
#X connect 54 1 21 0;
#X connect 54 1 23 0;
#X connect 54 1 25 0;
#X connect 54 1 27 0;
#X connect 54 1 29 0;
#X connect 54 1 40 0;
#X connect 54 1 42 0;
#X connect 54 1 44 0;
#X connect 54 1 49 0;
#X connect 54 2 9 0;
#X connect 54 3 9 1;
